<svg xmlns="http://www.w3.org/2000/svg" width="1102" height="102" viewBox="0 0 1102 102">
  <g id="Group_156" data-name="Group 156" transform="translate(-410 -2655)">
    <circle id="Ellipse_3" data-name="Ellipse 3" cx="1" cy="1" r="1" transform="translate(410 2655)" fill="#c0c1cc"/>
    <circle id="Ellipse_3-2" data-name="Ellipse 3" cx="1" cy="1" r="1" transform="translate(435 2655)" fill="#c0c1cc"/>
    <circle id="Ellipse_3-3" data-name="Ellipse 3" cx="1" cy="1" r="1" transform="translate(460 2655)" fill="#c0c1cc"/>
    <circle id="Ellipse_3-4" data-name="Ellipse 3" cx="1" cy="1" r="1" transform="translate(485 2655)" fill="#c0c1cc"/>
    <circle id="Ellipse_3-5" data-name="Ellipse 3" cx="1" cy="1" r="1" transform="translate(510 2655)" fill="#c0c1cc"/>
    <circle id="Ellipse_3-6" data-name="Ellipse 3" cx="1" cy="1" r="1" transform="translate(535 2655)" fill="#c0c1cc"/>
    <circle id="Ellipse_3-7" data-name="Ellipse 3" cx="1" cy="1" r="1" transform="translate(560 2655)" fill="#c0c1cc"/>
    <circle id="Ellipse_3-8" data-name="Ellipse 3" cx="1" cy="1" r="1" transform="translate(585 2655)" fill="#c0c1cc"/>
    <circle id="Ellipse_3-9" data-name="Ellipse 3" cx="1" cy="1" r="1" transform="translate(610 2655)" fill="#c0c1cc"/>
    <circle id="Ellipse_3-10" data-name="Ellipse 3" cx="1" cy="1" r="1" transform="translate(635 2655)" fill="#c0c1cc"/>
    <circle id="Ellipse_3-11" data-name="Ellipse 3" cx="1" cy="1" r="1" transform="translate(660 2655)" fill="#c0c1cc"/>
    <circle id="Ellipse_3-12" data-name="Ellipse 3" cx="1" cy="1" r="1" transform="translate(685 2655)" fill="#c0c1cc"/>
    <circle id="Ellipse_3-13" data-name="Ellipse 3" cx="1" cy="1" r="1" transform="translate(710 2655)" fill="#c0c1cc"/>
    <circle id="Ellipse_3-14" data-name="Ellipse 3" cx="1" cy="1" r="1" transform="translate(735 2655)" fill="#c0c1cc"/>
    <circle id="Ellipse_3-15" data-name="Ellipse 3" cx="1" cy="1" r="1" transform="translate(760 2655)" fill="#c0c1cc"/>
    <circle id="Ellipse_3-16" data-name="Ellipse 3" cx="1" cy="1" r="1" transform="translate(785 2655)" fill="#c0c1cc"/>
    <circle id="Ellipse_3-17" data-name="Ellipse 3" cx="1" cy="1" r="1" transform="translate(810 2655)" fill="#c0c1cc"/>
    <circle id="Ellipse_3-18" data-name="Ellipse 3" cx="1" cy="1" r="1" transform="translate(835 2655)" fill="#c0c1cc"/>
    <circle id="Ellipse_3-19" data-name="Ellipse 3" cx="1" cy="1" r="1" transform="translate(860 2655)" fill="#c0c1cc"/>
    <circle id="Ellipse_3-20" data-name="Ellipse 3" cx="1" cy="1" r="1" transform="translate(885 2655)" fill="#c0c1cc"/>
    <circle id="Ellipse_3-21" data-name="Ellipse 3" cx="1" cy="1" r="1" transform="translate(910 2655)" fill="#c0c1cc"/>
    <circle id="Ellipse_3-22" data-name="Ellipse 3" cx="1" cy="1" r="1" transform="translate(935 2655)" fill="#c0c1cc"/>
    <circle id="Ellipse_3-23" data-name="Ellipse 3" cx="1" cy="1" r="1" transform="translate(960 2655)" fill="#c0c1cc"/>
    <circle id="Ellipse_3-24" data-name="Ellipse 3" cx="1" cy="1" r="1" transform="translate(985 2655)" fill="#c0c1cc"/>
    <circle id="Ellipse_3-25" data-name="Ellipse 3" cx="1" cy="1" r="1" transform="translate(1010 2655)" fill="#c0c1cc"/>
    <circle id="Ellipse_3-26" data-name="Ellipse 3" cx="1" cy="1" r="1" transform="translate(1035 2655)" fill="#c0c1cc"/>
    <circle id="Ellipse_3-27" data-name="Ellipse 3" cx="1" cy="1" r="1" transform="translate(1060 2655)" fill="#c0c1cc"/>
    <circle id="Ellipse_3-28" data-name="Ellipse 3" cx="1" cy="1" r="1" transform="translate(1085 2655)" fill="#c0c1cc"/>
    <circle id="Ellipse_3-29" data-name="Ellipse 3" cx="1" cy="1" r="1" transform="translate(1110 2655)" fill="#c0c1cc"/>
    <circle id="Ellipse_3-30" data-name="Ellipse 3" cx="1" cy="1" r="1" transform="translate(1135 2655)" fill="#c0c1cc"/>
    <circle id="Ellipse_3-31" data-name="Ellipse 3" cx="1" cy="1" r="1" transform="translate(1160 2655)" fill="#c0c1cc"/>
    <circle id="Ellipse_3-32" data-name="Ellipse 3" cx="1" cy="1" r="1" transform="translate(1185 2655)" fill="#c0c1cc"/>
    <circle id="Ellipse_3-33" data-name="Ellipse 3" cx="1" cy="1" r="1" transform="translate(1210 2655)" fill="#c0c1cc"/>
    <circle id="Ellipse_3-34" data-name="Ellipse 3" cx="1" cy="1" r="1" transform="translate(1235 2655)" fill="#c0c1cc"/>
    <circle id="Ellipse_3-35" data-name="Ellipse 3" cx="1" cy="1" r="1" transform="translate(1260 2655)" fill="#c0c1cc"/>
    <circle id="Ellipse_3-36" data-name="Ellipse 3" cx="1" cy="1" r="1" transform="translate(1285 2655)" fill="#c0c1cc"/>
    <circle id="Ellipse_3-37" data-name="Ellipse 3" cx="1" cy="1" r="1" transform="translate(1310 2655)" fill="#c0c1cc"/>
    <circle id="Ellipse_3-38" data-name="Ellipse 3" cx="1" cy="1" r="1" transform="translate(1335 2655)" fill="#c0c1cc"/>
    <circle id="Ellipse_3-39" data-name="Ellipse 3" cx="1" cy="1" r="1" transform="translate(1360 2655)" fill="#c0c1cc"/>
    <circle id="Ellipse_3-40" data-name="Ellipse 3" cx="1" cy="1" r="1" transform="translate(1385 2655)" fill="#c0c1cc"/>
    <circle id="Ellipse_3-41" data-name="Ellipse 3" cx="1" cy="1" r="1" transform="translate(1410 2655)" fill="#c0c1cc"/>
    <circle id="Ellipse_3-42" data-name="Ellipse 3" cx="1" cy="1" r="1" transform="translate(1435 2655)" fill="#c0c1cc"/>
    <circle id="Ellipse_3-43" data-name="Ellipse 3" cx="1" cy="1" r="1" transform="translate(1460 2655)" fill="#c0c1cc"/>
    <circle id="Ellipse_3-44" data-name="Ellipse 3" cx="1" cy="1" r="1" transform="translate(1485 2655)" fill="#c0c1cc"/>
    <circle id="Ellipse_3-45" data-name="Ellipse 3" cx="1" cy="1" r="1" transform="translate(1510 2655)" fill="#c0c1cc"/>
    <circle id="Ellipse_3-46" data-name="Ellipse 3" cx="1" cy="1" r="1" transform="translate(410 2680)" fill="#c0c1cc"/>
    <circle id="Ellipse_3-47" data-name="Ellipse 3" cx="1" cy="1" r="1" transform="translate(435 2680)" fill="#c0c1cc"/>
    <circle id="Ellipse_3-48" data-name="Ellipse 3" cx="1" cy="1" r="1" transform="translate(460 2680)" fill="#c0c1cc"/>
    <circle id="Ellipse_3-49" data-name="Ellipse 3" cx="1" cy="1" r="1" transform="translate(485 2680)" fill="#c0c1cc"/>
    <circle id="Ellipse_3-50" data-name="Ellipse 3" cx="1" cy="1" r="1" transform="translate(510 2680)" fill="#c0c1cc"/>
    <circle id="Ellipse_3-51" data-name="Ellipse 3" cx="1" cy="1" r="1" transform="translate(535 2680)" fill="#c0c1cc"/>
    <circle id="Ellipse_3-52" data-name="Ellipse 3" cx="1" cy="1" r="1" transform="translate(560 2680)" fill="#c0c1cc"/>
    <circle id="Ellipse_3-53" data-name="Ellipse 3" cx="1" cy="1" r="1" transform="translate(585 2680)" fill="#c0c1cc"/>
    <circle id="Ellipse_3-54" data-name="Ellipse 3" cx="1" cy="1" r="1" transform="translate(610 2680)" fill="#c0c1cc"/>
    <circle id="Ellipse_3-55" data-name="Ellipse 3" cx="1" cy="1" r="1" transform="translate(635 2680)" fill="#c0c1cc"/>
    <circle id="Ellipse_3-56" data-name="Ellipse 3" cx="1" cy="1" r="1" transform="translate(660 2680)" fill="#c0c1cc"/>
    <circle id="Ellipse_3-57" data-name="Ellipse 3" cx="1" cy="1" r="1" transform="translate(685 2680)" fill="#c0c1cc"/>
    <circle id="Ellipse_3-58" data-name="Ellipse 3" cx="1" cy="1" r="1" transform="translate(710 2680)" fill="#c0c1cc"/>
    <circle id="Ellipse_3-59" data-name="Ellipse 3" cx="1" cy="1" r="1" transform="translate(735 2680)" fill="#c0c1cc"/>
    <circle id="Ellipse_3-60" data-name="Ellipse 3" cx="1" cy="1" r="1" transform="translate(760 2680)" fill="#c0c1cc"/>
    <circle id="Ellipse_3-61" data-name="Ellipse 3" cx="1" cy="1" r="1" transform="translate(785 2680)" fill="#c0c1cc"/>
    <circle id="Ellipse_3-62" data-name="Ellipse 3" cx="1" cy="1" r="1" transform="translate(810 2680)" fill="#c0c1cc"/>
    <circle id="Ellipse_3-63" data-name="Ellipse 3" cx="1" cy="1" r="1" transform="translate(835 2680)" fill="#c0c1cc"/>
    <circle id="Ellipse_3-64" data-name="Ellipse 3" cx="1" cy="1" r="1" transform="translate(860 2680)" fill="#c0c1cc"/>
    <circle id="Ellipse_3-65" data-name="Ellipse 3" cx="1" cy="1" r="1" transform="translate(885 2680)" fill="#c0c1cc"/>
    <circle id="Ellipse_3-66" data-name="Ellipse 3" cx="1" cy="1" r="1" transform="translate(910 2680)" fill="#c0c1cc"/>
    <circle id="Ellipse_3-67" data-name="Ellipse 3" cx="1" cy="1" r="1" transform="translate(935 2680)" fill="#c0c1cc"/>
    <circle id="Ellipse_3-68" data-name="Ellipse 3" cx="1" cy="1" r="1" transform="translate(960 2680)" fill="#c0c1cc"/>
    <circle id="Ellipse_3-69" data-name="Ellipse 3" cx="1" cy="1" r="1" transform="translate(985 2680)" fill="#c0c1cc"/>
    <circle id="Ellipse_3-70" data-name="Ellipse 3" cx="1" cy="1" r="1" transform="translate(1010 2680)" fill="#c0c1cc"/>
    <circle id="Ellipse_3-71" data-name="Ellipse 3" cx="1" cy="1" r="1" transform="translate(1035 2680)" fill="#c0c1cc"/>
    <circle id="Ellipse_3-72" data-name="Ellipse 3" cx="1" cy="1" r="1" transform="translate(1060 2680)" fill="#c0c1cc"/>
    <circle id="Ellipse_3-73" data-name="Ellipse 3" cx="1" cy="1" r="1" transform="translate(1085 2680)" fill="#c0c1cc"/>
    <circle id="Ellipse_3-74" data-name="Ellipse 3" cx="1" cy="1" r="1" transform="translate(1110 2680)" fill="#c0c1cc"/>
    <circle id="Ellipse_3-75" data-name="Ellipse 3" cx="1" cy="1" r="1" transform="translate(1135 2680)" fill="#c0c1cc"/>
    <circle id="Ellipse_3-76" data-name="Ellipse 3" cx="1" cy="1" r="1" transform="translate(1160 2680)" fill="#c0c1cc"/>
    <circle id="Ellipse_3-77" data-name="Ellipse 3" cx="1" cy="1" r="1" transform="translate(1185 2680)" fill="#c0c1cc"/>
    <circle id="Ellipse_3-78" data-name="Ellipse 3" cx="1" cy="1" r="1" transform="translate(1210 2680)" fill="#c0c1cc"/>
    <circle id="Ellipse_3-79" data-name="Ellipse 3" cx="1" cy="1" r="1" transform="translate(1235 2680)" fill="#c0c1cc"/>
    <circle id="Ellipse_3-80" data-name="Ellipse 3" cx="1" cy="1" r="1" transform="translate(1260 2680)" fill="#c0c1cc"/>
    <circle id="Ellipse_3-81" data-name="Ellipse 3" cx="1" cy="1" r="1" transform="translate(1285 2680)" fill="#c0c1cc"/>
    <circle id="Ellipse_3-82" data-name="Ellipse 3" cx="1" cy="1" r="1" transform="translate(1310 2680)" fill="#c0c1cc"/>
    <circle id="Ellipse_3-83" data-name="Ellipse 3" cx="1" cy="1" r="1" transform="translate(1335 2680)" fill="#c0c1cc"/>
    <circle id="Ellipse_3-84" data-name="Ellipse 3" cx="1" cy="1" r="1" transform="translate(1360 2680)" fill="#c0c1cc"/>
    <circle id="Ellipse_3-85" data-name="Ellipse 3" cx="1" cy="1" r="1" transform="translate(1385 2680)" fill="#c0c1cc"/>
    <circle id="Ellipse_3-86" data-name="Ellipse 3" cx="1" cy="1" r="1" transform="translate(1410 2680)" fill="#c0c1cc"/>
    <circle id="Ellipse_3-87" data-name="Ellipse 3" cx="1" cy="1" r="1" transform="translate(1435 2680)" fill="#c0c1cc"/>
    <circle id="Ellipse_3-88" data-name="Ellipse 3" cx="1" cy="1" r="1" transform="translate(1460 2680)" fill="#c0c1cc"/>
    <circle id="Ellipse_3-89" data-name="Ellipse 3" cx="1" cy="1" r="1" transform="translate(1485 2680)" fill="#c0c1cc"/>
    <circle id="Ellipse_3-90" data-name="Ellipse 3" cx="1" cy="1" r="1" transform="translate(1510 2680)" fill="#c0c1cc"/>
    <circle id="Ellipse_3-91" data-name="Ellipse 3" cx="1" cy="1" r="1" transform="translate(410 2705)" fill="#c0c1cc"/>
    <circle id="Ellipse_3-92" data-name="Ellipse 3" cx="1" cy="1" r="1" transform="translate(435 2705)" fill="#c0c1cc"/>
    <circle id="Ellipse_3-93" data-name="Ellipse 3" cx="1" cy="1" r="1" transform="translate(460 2705)" fill="#c0c1cc"/>
    <circle id="Ellipse_3-94" data-name="Ellipse 3" cx="1" cy="1" r="1" transform="translate(485 2705)" fill="#c0c1cc"/>
    <circle id="Ellipse_3-95" data-name="Ellipse 3" cx="1" cy="1" r="1" transform="translate(510 2705)" fill="#c0c1cc"/>
    <circle id="Ellipse_3-96" data-name="Ellipse 3" cx="1" cy="1" r="1" transform="translate(535 2705)" fill="#c0c1cc"/>
    <circle id="Ellipse_3-97" data-name="Ellipse 3" cx="1" cy="1" r="1" transform="translate(560 2705)" fill="#c0c1cc"/>
    <circle id="Ellipse_3-98" data-name="Ellipse 3" cx="1" cy="1" r="1" transform="translate(585 2705)" fill="#c0c1cc"/>
    <circle id="Ellipse_3-99" data-name="Ellipse 3" cx="1" cy="1" r="1" transform="translate(610 2705)" fill="#c0c1cc"/>
    <circle id="Ellipse_3-100" data-name="Ellipse 3" cx="1" cy="1" r="1" transform="translate(635 2705)" fill="#c0c1cc"/>
    <circle id="Ellipse_3-101" data-name="Ellipse 3" cx="1" cy="1" r="1" transform="translate(660 2705)" fill="#c0c1cc"/>
    <circle id="Ellipse_3-102" data-name="Ellipse 3" cx="1" cy="1" r="1" transform="translate(685 2705)" fill="#c0c1cc"/>
    <circle id="Ellipse_3-103" data-name="Ellipse 3" cx="1" cy="1" r="1" transform="translate(710 2705)" fill="#c0c1cc"/>
    <circle id="Ellipse_3-104" data-name="Ellipse 3" cx="1" cy="1" r="1" transform="translate(735 2705)" fill="#c0c1cc"/>
    <circle id="Ellipse_3-105" data-name="Ellipse 3" cx="1" cy="1" r="1" transform="translate(760 2705)" fill="#c0c1cc"/>
    <circle id="Ellipse_3-106" data-name="Ellipse 3" cx="1" cy="1" r="1" transform="translate(785 2705)" fill="#c0c1cc"/>
    <circle id="Ellipse_3-107" data-name="Ellipse 3" cx="1" cy="1" r="1" transform="translate(810 2705)" fill="#c0c1cc"/>
    <circle id="Ellipse_3-108" data-name="Ellipse 3" cx="1" cy="1" r="1" transform="translate(835 2705)" fill="#c0c1cc"/>
    <circle id="Ellipse_3-109" data-name="Ellipse 3" cx="1" cy="1" r="1" transform="translate(860 2705)" fill="#c0c1cc"/>
    <circle id="Ellipse_3-110" data-name="Ellipse 3" cx="1" cy="1" r="1" transform="translate(885 2705)" fill="#c0c1cc"/>
    <circle id="Ellipse_3-111" data-name="Ellipse 3" cx="1" cy="1" r="1" transform="translate(910 2705)" fill="#c0c1cc"/>
    <circle id="Ellipse_3-112" data-name="Ellipse 3" cx="1" cy="1" r="1" transform="translate(935 2705)" fill="#c0c1cc"/>
    <circle id="Ellipse_3-113" data-name="Ellipse 3" cx="1" cy="1" r="1" transform="translate(960 2705)" fill="#c0c1cc"/>
    <circle id="Ellipse_3-114" data-name="Ellipse 3" cx="1" cy="1" r="1" transform="translate(985 2705)" fill="#c0c1cc"/>
    <circle id="Ellipse_3-115" data-name="Ellipse 3" cx="1" cy="1" r="1" transform="translate(1010 2705)" fill="#c0c1cc"/>
    <circle id="Ellipse_3-116" data-name="Ellipse 3" cx="1" cy="1" r="1" transform="translate(1035 2705)" fill="#c0c1cc"/>
    <circle id="Ellipse_3-117" data-name="Ellipse 3" cx="1" cy="1" r="1" transform="translate(1060 2705)" fill="#c0c1cc"/>
    <circle id="Ellipse_3-118" data-name="Ellipse 3" cx="1" cy="1" r="1" transform="translate(1085 2705)" fill="#c0c1cc"/>
    <circle id="Ellipse_3-119" data-name="Ellipse 3" cx="1" cy="1" r="1" transform="translate(1110 2705)" fill="#c0c1cc"/>
    <circle id="Ellipse_3-120" data-name="Ellipse 3" cx="1" cy="1" r="1" transform="translate(1135 2705)" fill="#c0c1cc"/>
    <circle id="Ellipse_3-121" data-name="Ellipse 3" cx="1" cy="1" r="1" transform="translate(1160 2705)" fill="#c0c1cc"/>
    <circle id="Ellipse_3-122" data-name="Ellipse 3" cx="1" cy="1" r="1" transform="translate(1185 2705)" fill="#c0c1cc"/>
    <circle id="Ellipse_3-123" data-name="Ellipse 3" cx="1" cy="1" r="1" transform="translate(1210 2705)" fill="#c0c1cc"/>
    <circle id="Ellipse_3-124" data-name="Ellipse 3" cx="1" cy="1" r="1" transform="translate(1235 2705)" fill="#c0c1cc"/>
    <circle id="Ellipse_3-125" data-name="Ellipse 3" cx="1" cy="1" r="1" transform="translate(1260 2705)" fill="#c0c1cc"/>
    <circle id="Ellipse_3-126" data-name="Ellipse 3" cx="1" cy="1" r="1" transform="translate(1285 2705)" fill="#c0c1cc"/>
    <circle id="Ellipse_3-127" data-name="Ellipse 3" cx="1" cy="1" r="1" transform="translate(1310 2705)" fill="#c0c1cc"/>
    <circle id="Ellipse_3-128" data-name="Ellipse 3" cx="1" cy="1" r="1" transform="translate(1335 2705)" fill="#c0c1cc"/>
    <circle id="Ellipse_3-129" data-name="Ellipse 3" cx="1" cy="1" r="1" transform="translate(1360 2705)" fill="#c0c1cc"/>
    <circle id="Ellipse_3-130" data-name="Ellipse 3" cx="1" cy="1" r="1" transform="translate(1385 2705)" fill="#c0c1cc"/>
    <circle id="Ellipse_3-131" data-name="Ellipse 3" cx="1" cy="1" r="1" transform="translate(1410 2705)" fill="#c0c1cc"/>
    <circle id="Ellipse_3-132" data-name="Ellipse 3" cx="1" cy="1" r="1" transform="translate(1435 2705)" fill="#c0c1cc"/>
    <circle id="Ellipse_3-133" data-name="Ellipse 3" cx="1" cy="1" r="1" transform="translate(1460 2705)" fill="#c0c1cc"/>
    <circle id="Ellipse_3-134" data-name="Ellipse 3" cx="1" cy="1" r="1" transform="translate(1485 2705)" fill="#c0c1cc"/>
    <circle id="Ellipse_3-135" data-name="Ellipse 3" cx="1" cy="1" r="1" transform="translate(1510 2705)" fill="#c0c1cc"/>
    <circle id="Ellipse_3-136" data-name="Ellipse 3" cx="1" cy="1" r="1" transform="translate(410 2730)" fill="#c0c1cc"/>
    <circle id="Ellipse_3-137" data-name="Ellipse 3" cx="1" cy="1" r="1" transform="translate(435 2730)" fill="#c0c1cc"/>
    <circle id="Ellipse_3-138" data-name="Ellipse 3" cx="1" cy="1" r="1" transform="translate(460 2730)" fill="#c0c1cc"/>
    <circle id="Ellipse_3-139" data-name="Ellipse 3" cx="1" cy="1" r="1" transform="translate(485 2730)" fill="#c0c1cc"/>
    <circle id="Ellipse_3-140" data-name="Ellipse 3" cx="1" cy="1" r="1" transform="translate(510 2730)" fill="#c0c1cc"/>
    <circle id="Ellipse_3-141" data-name="Ellipse 3" cx="1" cy="1" r="1" transform="translate(535 2730)" fill="#c0c1cc"/>
    <circle id="Ellipse_3-142" data-name="Ellipse 3" cx="1" cy="1" r="1" transform="translate(560 2730)" fill="#c0c1cc"/>
    <circle id="Ellipse_3-143" data-name="Ellipse 3" cx="1" cy="1" r="1" transform="translate(585 2730)" fill="#c0c1cc"/>
    <circle id="Ellipse_3-144" data-name="Ellipse 3" cx="1" cy="1" r="1" transform="translate(610 2730)" fill="#c0c1cc"/>
    <circle id="Ellipse_3-145" data-name="Ellipse 3" cx="1" cy="1" r="1" transform="translate(635 2730)" fill="#c0c1cc"/>
    <circle id="Ellipse_3-146" data-name="Ellipse 3" cx="1" cy="1" r="1" transform="translate(660 2730)" fill="#c0c1cc"/>
    <circle id="Ellipse_3-147" data-name="Ellipse 3" cx="1" cy="1" r="1" transform="translate(685 2730)" fill="#c0c1cc"/>
    <circle id="Ellipse_3-148" data-name="Ellipse 3" cx="1" cy="1" r="1" transform="translate(710 2730)" fill="#c0c1cc"/>
    <circle id="Ellipse_3-149" data-name="Ellipse 3" cx="1" cy="1" r="1" transform="translate(735 2730)" fill="#c0c1cc"/>
    <circle id="Ellipse_3-150" data-name="Ellipse 3" cx="1" cy="1" r="1" transform="translate(760 2730)" fill="#c0c1cc"/>
    <circle id="Ellipse_3-151" data-name="Ellipse 3" cx="1" cy="1" r="1" transform="translate(785 2730)" fill="#c0c1cc"/>
    <circle id="Ellipse_3-152" data-name="Ellipse 3" cx="1" cy="1" r="1" transform="translate(810 2730)" fill="#c0c1cc"/>
    <circle id="Ellipse_3-153" data-name="Ellipse 3" cx="1" cy="1" r="1" transform="translate(835 2730)" fill="#c0c1cc"/>
    <circle id="Ellipse_3-154" data-name="Ellipse 3" cx="1" cy="1" r="1" transform="translate(860 2730)" fill="#c0c1cc"/>
    <circle id="Ellipse_3-155" data-name="Ellipse 3" cx="1" cy="1" r="1" transform="translate(885 2730)" fill="#c0c1cc"/>
    <circle id="Ellipse_3-156" data-name="Ellipse 3" cx="1" cy="1" r="1" transform="translate(910 2730)" fill="#c0c1cc"/>
    <circle id="Ellipse_3-157" data-name="Ellipse 3" cx="1" cy="1" r="1" transform="translate(935 2730)" fill="#c0c1cc"/>
    <circle id="Ellipse_3-158" data-name="Ellipse 3" cx="1" cy="1" r="1" transform="translate(960 2730)" fill="#c0c1cc"/>
    <circle id="Ellipse_3-159" data-name="Ellipse 3" cx="1" cy="1" r="1" transform="translate(985 2730)" fill="#c0c1cc"/>
    <circle id="Ellipse_3-160" data-name="Ellipse 3" cx="1" cy="1" r="1" transform="translate(1010 2730)" fill="#c0c1cc"/>
    <circle id="Ellipse_3-161" data-name="Ellipse 3" cx="1" cy="1" r="1" transform="translate(1035 2730)" fill="#c0c1cc"/>
    <circle id="Ellipse_3-162" data-name="Ellipse 3" cx="1" cy="1" r="1" transform="translate(1060 2730)" fill="#c0c1cc"/>
    <circle id="Ellipse_3-163" data-name="Ellipse 3" cx="1" cy="1" r="1" transform="translate(1085 2730)" fill="#c0c1cc"/>
    <circle id="Ellipse_3-164" data-name="Ellipse 3" cx="1" cy="1" r="1" transform="translate(1110 2730)" fill="#c0c1cc"/>
    <circle id="Ellipse_3-165" data-name="Ellipse 3" cx="1" cy="1" r="1" transform="translate(1135 2730)" fill="#c0c1cc"/>
    <circle id="Ellipse_3-166" data-name="Ellipse 3" cx="1" cy="1" r="1" transform="translate(1160 2730)" fill="#c0c1cc"/>
    <circle id="Ellipse_3-167" data-name="Ellipse 3" cx="1" cy="1" r="1" transform="translate(1185 2730)" fill="#c0c1cc"/>
    <circle id="Ellipse_3-168" data-name="Ellipse 3" cx="1" cy="1" r="1" transform="translate(1210 2730)" fill="#c0c1cc"/>
    <circle id="Ellipse_3-169" data-name="Ellipse 3" cx="1" cy="1" r="1" transform="translate(1235 2730)" fill="#c0c1cc"/>
    <circle id="Ellipse_3-170" data-name="Ellipse 3" cx="1" cy="1" r="1" transform="translate(1260 2730)" fill="#c0c1cc"/>
    <circle id="Ellipse_3-171" data-name="Ellipse 3" cx="1" cy="1" r="1" transform="translate(1285 2730)" fill="#c0c1cc"/>
    <circle id="Ellipse_3-172" data-name="Ellipse 3" cx="1" cy="1" r="1" transform="translate(1310 2730)" fill="#c0c1cc"/>
    <circle id="Ellipse_3-173" data-name="Ellipse 3" cx="1" cy="1" r="1" transform="translate(1335 2730)" fill="#c0c1cc"/>
    <circle id="Ellipse_3-174" data-name="Ellipse 3" cx="1" cy="1" r="1" transform="translate(1360 2730)" fill="#c0c1cc"/>
    <circle id="Ellipse_3-175" data-name="Ellipse 3" cx="1" cy="1" r="1" transform="translate(1385 2730)" fill="#c0c1cc"/>
    <circle id="Ellipse_3-176" data-name="Ellipse 3" cx="1" cy="1" r="1" transform="translate(1410 2730)" fill="#c0c1cc"/>
    <circle id="Ellipse_3-177" data-name="Ellipse 3" cx="1" cy="1" r="1" transform="translate(1435 2730)" fill="#c0c1cc"/>
    <circle id="Ellipse_3-178" data-name="Ellipse 3" cx="1" cy="1" r="1" transform="translate(1460 2730)" fill="#c0c1cc"/>
    <circle id="Ellipse_3-179" data-name="Ellipse 3" cx="1" cy="1" r="1" transform="translate(1485 2730)" fill="#c0c1cc"/>
    <circle id="Ellipse_3-180" data-name="Ellipse 3" cx="1" cy="1" r="1" transform="translate(1510 2730)" fill="#c0c1cc"/>
    <circle id="Ellipse_3-181" data-name="Ellipse 3" cx="1" cy="1" r="1" transform="translate(410 2755)" fill="#c0c1cc"/>
    <circle id="Ellipse_3-182" data-name="Ellipse 3" cx="1" cy="1" r="1" transform="translate(435 2755)" fill="#c0c1cc"/>
    <circle id="Ellipse_3-183" data-name="Ellipse 3" cx="1" cy="1" r="1" transform="translate(460 2755)" fill="#c0c1cc"/>
    <circle id="Ellipse_3-184" data-name="Ellipse 3" cx="1" cy="1" r="1" transform="translate(485 2755)" fill="#c0c1cc"/>
    <circle id="Ellipse_3-185" data-name="Ellipse 3" cx="1" cy="1" r="1" transform="translate(510 2755)" fill="#c0c1cc"/>
    <circle id="Ellipse_3-186" data-name="Ellipse 3" cx="1" cy="1" r="1" transform="translate(535 2755)" fill="#c0c1cc"/>
    <circle id="Ellipse_3-187" data-name="Ellipse 3" cx="1" cy="1" r="1" transform="translate(560 2755)" fill="#c0c1cc"/>
    <circle id="Ellipse_3-188" data-name="Ellipse 3" cx="1" cy="1" r="1" transform="translate(585 2755)" fill="#c0c1cc"/>
    <circle id="Ellipse_3-189" data-name="Ellipse 3" cx="1" cy="1" r="1" transform="translate(610 2755)" fill="#c0c1cc"/>
    <circle id="Ellipse_3-190" data-name="Ellipse 3" cx="1" cy="1" r="1" transform="translate(635 2755)" fill="#c0c1cc"/>
    <circle id="Ellipse_3-191" data-name="Ellipse 3" cx="1" cy="1" r="1" transform="translate(660 2755)" fill="#c0c1cc"/>
    <circle id="Ellipse_3-192" data-name="Ellipse 3" cx="1" cy="1" r="1" transform="translate(685 2755)" fill="#c0c1cc"/>
    <circle id="Ellipse_3-193" data-name="Ellipse 3" cx="1" cy="1" r="1" transform="translate(710 2755)" fill="#c0c1cc"/>
    <circle id="Ellipse_3-194" data-name="Ellipse 3" cx="1" cy="1" r="1" transform="translate(735 2755)" fill="#c0c1cc"/>
    <circle id="Ellipse_3-195" data-name="Ellipse 3" cx="1" cy="1" r="1" transform="translate(760 2755)" fill="#c0c1cc"/>
    <circle id="Ellipse_3-196" data-name="Ellipse 3" cx="1" cy="1" r="1" transform="translate(785 2755)" fill="#c0c1cc"/>
    <circle id="Ellipse_3-197" data-name="Ellipse 3" cx="1" cy="1" r="1" transform="translate(810 2755)" fill="#c0c1cc"/>
    <circle id="Ellipse_3-198" data-name="Ellipse 3" cx="1" cy="1" r="1" transform="translate(835 2755)" fill="#c0c1cc"/>
    <circle id="Ellipse_3-199" data-name="Ellipse 3" cx="1" cy="1" r="1" transform="translate(860 2755)" fill="#c0c1cc"/>
    <circle id="Ellipse_3-200" data-name="Ellipse 3" cx="1" cy="1" r="1" transform="translate(885 2755)" fill="#c0c1cc"/>
    <circle id="Ellipse_3-201" data-name="Ellipse 3" cx="1" cy="1" r="1" transform="translate(910 2755)" fill="#c0c1cc"/>
    <circle id="Ellipse_3-202" data-name="Ellipse 3" cx="1" cy="1" r="1" transform="translate(935 2755)" fill="#c0c1cc"/>
    <circle id="Ellipse_3-203" data-name="Ellipse 3" cx="1" cy="1" r="1" transform="translate(960 2755)" fill="#c0c1cc"/>
    <circle id="Ellipse_3-204" data-name="Ellipse 3" cx="1" cy="1" r="1" transform="translate(985 2755)" fill="#c0c1cc"/>
    <circle id="Ellipse_3-205" data-name="Ellipse 3" cx="1" cy="1" r="1" transform="translate(1010 2755)" fill="#c0c1cc"/>
    <circle id="Ellipse_3-206" data-name="Ellipse 3" cx="1" cy="1" r="1" transform="translate(1035 2755)" fill="#c0c1cc"/>
    <circle id="Ellipse_3-207" data-name="Ellipse 3" cx="1" cy="1" r="1" transform="translate(1060 2755)" fill="#c0c1cc"/>
    <circle id="Ellipse_3-208" data-name="Ellipse 3" cx="1" cy="1" r="1" transform="translate(1085 2755)" fill="#c0c1cc"/>
    <circle id="Ellipse_3-209" data-name="Ellipse 3" cx="1" cy="1" r="1" transform="translate(1110 2755)" fill="#c0c1cc"/>
    <circle id="Ellipse_3-210" data-name="Ellipse 3" cx="1" cy="1" r="1" transform="translate(1135 2755)" fill="#c0c1cc"/>
    <circle id="Ellipse_3-211" data-name="Ellipse 3" cx="1" cy="1" r="1" transform="translate(1160 2755)" fill="#c0c1cc"/>
    <circle id="Ellipse_3-212" data-name="Ellipse 3" cx="1" cy="1" r="1" transform="translate(1185 2755)" fill="#c0c1cc"/>
    <circle id="Ellipse_3-213" data-name="Ellipse 3" cx="1" cy="1" r="1" transform="translate(1210 2755)" fill="#c0c1cc"/>
    <circle id="Ellipse_3-214" data-name="Ellipse 3" cx="1" cy="1" r="1" transform="translate(1235 2755)" fill="#c0c1cc"/>
    <circle id="Ellipse_3-215" data-name="Ellipse 3" cx="1" cy="1" r="1" transform="translate(1260 2755)" fill="#c0c1cc"/>
    <circle id="Ellipse_3-216" data-name="Ellipse 3" cx="1" cy="1" r="1" transform="translate(1285 2755)" fill="#c0c1cc"/>
    <circle id="Ellipse_3-217" data-name="Ellipse 3" cx="1" cy="1" r="1" transform="translate(1310 2755)" fill="#c0c1cc"/>
    <circle id="Ellipse_3-218" data-name="Ellipse 3" cx="1" cy="1" r="1" transform="translate(1335 2755)" fill="#c0c1cc"/>
    <circle id="Ellipse_3-219" data-name="Ellipse 3" cx="1" cy="1" r="1" transform="translate(1360 2755)" fill="#c0c1cc"/>
    <circle id="Ellipse_3-220" data-name="Ellipse 3" cx="1" cy="1" r="1" transform="translate(1385 2755)" fill="#c0c1cc"/>
    <circle id="Ellipse_3-221" data-name="Ellipse 3" cx="1" cy="1" r="1" transform="translate(1410 2755)" fill="#c0c1cc"/>
    <circle id="Ellipse_3-222" data-name="Ellipse 3" cx="1" cy="1" r="1" transform="translate(1435 2755)" fill="#c0c1cc"/>
    <circle id="Ellipse_3-223" data-name="Ellipse 3" cx="1" cy="1" r="1" transform="translate(1460 2755)" fill="#c0c1cc"/>
    <circle id="Ellipse_3-224" data-name="Ellipse 3" cx="1" cy="1" r="1" transform="translate(1485 2755)" fill="#c0c1cc"/>
    <circle id="Ellipse_3-225" data-name="Ellipse 3" cx="1" cy="1" r="1" transform="translate(1510 2755)" fill="#c0c1cc"/>
  </g>
</svg>
