<svg xmlns="http://www.w3.org/2000/svg" width="1102" height="102"><g data-name="Group 156" transform="translate(-410 -2655)" fill="#c0c1cc"><circle data-name="Ellipse 3" cx="1" cy="1" r="1" transform="translate(410 2655)"/><circle data-name="Ellipse 3" cx="1" cy="1" r="1" transform="translate(435 2655)"/><circle data-name="Ellipse 3" cx="1" cy="1" r="1" transform="translate(460 2655)"/><circle data-name="Ellipse 3" cx="1" cy="1" r="1" transform="translate(485 2655)"/><circle data-name="Ellipse 3" cx="1" cy="1" r="1" transform="translate(510 2655)"/><circle data-name="Ellipse 3" cx="1" cy="1" r="1" transform="translate(535 2655)"/><circle data-name="Ellipse 3" cx="1" cy="1" r="1" transform="translate(560 2655)"/><circle data-name="Ellipse 3" cx="1" cy="1" r="1" transform="translate(585 2655)"/><circle data-name="Ellipse 3" cx="1" cy="1" r="1" transform="translate(610 2655)"/><circle data-name="Ellipse 3" cx="1" cy="1" r="1" transform="translate(635 2655)"/><circle data-name="Ellipse 3" cx="1" cy="1" r="1" transform="translate(660 2655)"/><circle data-name="Ellipse 3" cx="1" cy="1" r="1" transform="translate(685 2655)"/><circle data-name="Ellipse 3" cx="1" cy="1" r="1" transform="translate(710 2655)"/><circle data-name="Ellipse 3" cx="1" cy="1" r="1" transform="translate(735 2655)"/><circle data-name="Ellipse 3" cx="1" cy="1" r="1" transform="translate(760 2655)"/><circle data-name="Ellipse 3" cx="1" cy="1" r="1" transform="translate(785 2655)"/><circle data-name="Ellipse 3" cx="1" cy="1" r="1" transform="translate(810 2655)"/><circle data-name="Ellipse 3" cx="1" cy="1" r="1" transform="translate(835 2655)"/><circle data-name="Ellipse 3" cx="1" cy="1" r="1" transform="translate(860 2655)"/><circle data-name="Ellipse 3" cx="1" cy="1" r="1" transform="translate(885 2655)"/><circle data-name="Ellipse 3" cx="1" cy="1" r="1" transform="translate(910 2655)"/><circle data-name="Ellipse 3" cx="1" cy="1" r="1" transform="translate(935 2655)"/><circle data-name="Ellipse 3" cx="1" cy="1" r="1" transform="translate(960 2655)"/><circle data-name="Ellipse 3" cx="1" cy="1" r="1" transform="translate(985 2655)"/><circle data-name="Ellipse 3" cx="1" cy="1" r="1" transform="translate(1010 2655)"/><circle data-name="Ellipse 3" cx="1" cy="1" r="1" transform="translate(1035 2655)"/><circle data-name="Ellipse 3" cx="1" cy="1" r="1" transform="translate(1060 2655)"/><circle data-name="Ellipse 3" cx="1" cy="1" r="1" transform="translate(1085 2655)"/><circle data-name="Ellipse 3" cx="1" cy="1" r="1" transform="translate(1110 2655)"/><circle data-name="Ellipse 3" cx="1" cy="1" r="1" transform="translate(1135 2655)"/><circle data-name="Ellipse 3" cx="1" cy="1" r="1" transform="translate(1160 2655)"/><circle data-name="Ellipse 3" cx="1" cy="1" r="1" transform="translate(1185 2655)"/><circle data-name="Ellipse 3" cx="1" cy="1" r="1" transform="translate(1210 2655)"/><circle data-name="Ellipse 3" cx="1" cy="1" r="1" transform="translate(1235 2655)"/><circle data-name="Ellipse 3" cx="1" cy="1" r="1" transform="translate(1260 2655)"/><circle data-name="Ellipse 3" cx="1" cy="1" r="1" transform="translate(1285 2655)"/><circle data-name="Ellipse 3" cx="1" cy="1" r="1" transform="translate(1310 2655)"/><circle data-name="Ellipse 3" cx="1" cy="1" r="1" transform="translate(1335 2655)"/><circle data-name="Ellipse 3" cx="1" cy="1" r="1" transform="translate(1360 2655)"/><circle data-name="Ellipse 3" cx="1" cy="1" r="1" transform="translate(1385 2655)"/><circle data-name="Ellipse 3" cx="1" cy="1" r="1" transform="translate(1410 2655)"/><circle data-name="Ellipse 3" cx="1" cy="1" r="1" transform="translate(1435 2655)"/><circle data-name="Ellipse 3" cx="1" cy="1" r="1" transform="translate(1460 2655)"/><circle data-name="Ellipse 3" cx="1" cy="1" r="1" transform="translate(1485 2655)"/><circle data-name="Ellipse 3" cx="1" cy="1" r="1" transform="translate(1510 2655)"/><circle data-name="Ellipse 3" cx="1" cy="1" r="1" transform="translate(410 2680)"/><circle data-name="Ellipse 3" cx="1" cy="1" r="1" transform="translate(435 2680)"/><circle data-name="Ellipse 3" cx="1" cy="1" r="1" transform="translate(460 2680)"/><circle data-name="Ellipse 3" cx="1" cy="1" r="1" transform="translate(485 2680)"/><circle data-name="Ellipse 3" cx="1" cy="1" r="1" transform="translate(510 2680)"/><circle data-name="Ellipse 3" cx="1" cy="1" r="1" transform="translate(535 2680)"/><circle data-name="Ellipse 3" cx="1" cy="1" r="1" transform="translate(560 2680)"/><circle data-name="Ellipse 3" cx="1" cy="1" r="1" transform="translate(585 2680)"/><circle data-name="Ellipse 3" cx="1" cy="1" r="1" transform="translate(610 2680)"/><circle data-name="Ellipse 3" cx="1" cy="1" r="1" transform="translate(635 2680)"/><circle data-name="Ellipse 3" cx="1" cy="1" r="1" transform="translate(660 2680)"/><circle data-name="Ellipse 3" cx="1" cy="1" r="1" transform="translate(685 2680)"/><circle data-name="Ellipse 3" cx="1" cy="1" r="1" transform="translate(710 2680)"/><circle data-name="Ellipse 3" cx="1" cy="1" r="1" transform="translate(735 2680)"/><circle data-name="Ellipse 3" cx="1" cy="1" r="1" transform="translate(760 2680)"/><circle data-name="Ellipse 3" cx="1" cy="1" r="1" transform="translate(785 2680)"/><circle data-name="Ellipse 3" cx="1" cy="1" r="1" transform="translate(810 2680)"/><circle data-name="Ellipse 3" cx="1" cy="1" r="1" transform="translate(835 2680)"/><circle data-name="Ellipse 3" cx="1" cy="1" r="1" transform="translate(860 2680)"/><circle data-name="Ellipse 3" cx="1" cy="1" r="1" transform="translate(885 2680)"/><circle data-name="Ellipse 3" cx="1" cy="1" r="1" transform="translate(910 2680)"/><circle data-name="Ellipse 3" cx="1" cy="1" r="1" transform="translate(935 2680)"/><circle data-name="Ellipse 3" cx="1" cy="1" r="1" transform="translate(960 2680)"/><circle data-name="Ellipse 3" cx="1" cy="1" r="1" transform="translate(985 2680)"/><circle data-name="Ellipse 3" cx="1" cy="1" r="1" transform="translate(1010 2680)"/><circle data-name="Ellipse 3" cx="1" cy="1" r="1" transform="translate(1035 2680)"/><circle data-name="Ellipse 3" cx="1" cy="1" r="1" transform="translate(1060 2680)"/><circle data-name="Ellipse 3" cx="1" cy="1" r="1" transform="translate(1085 2680)"/><circle data-name="Ellipse 3" cx="1" cy="1" r="1" transform="translate(1110 2680)"/><circle data-name="Ellipse 3" cx="1" cy="1" r="1" transform="translate(1135 2680)"/><circle data-name="Ellipse 3" cx="1" cy="1" r="1" transform="translate(1160 2680)"/><circle data-name="Ellipse 3" cx="1" cy="1" r="1" transform="translate(1185 2680)"/><circle data-name="Ellipse 3" cx="1" cy="1" r="1" transform="translate(1210 2680)"/><circle data-name="Ellipse 3" cx="1" cy="1" r="1" transform="translate(1235 2680)"/><circle data-name="Ellipse 3" cx="1" cy="1" r="1" transform="translate(1260 2680)"/><circle data-name="Ellipse 3" cx="1" cy="1" r="1" transform="translate(1285 2680)"/><circle data-name="Ellipse 3" cx="1" cy="1" r="1" transform="translate(1310 2680)"/><circle data-name="Ellipse 3" cx="1" cy="1" r="1" transform="translate(1335 2680)"/><circle data-name="Ellipse 3" cx="1" cy="1" r="1" transform="translate(1360 2680)"/><circle data-name="Ellipse 3" cx="1" cy="1" r="1" transform="translate(1385 2680)"/><circle data-name="Ellipse 3" cx="1" cy="1" r="1" transform="translate(1410 2680)"/><circle data-name="Ellipse 3" cx="1" cy="1" r="1" transform="translate(1435 2680)"/><circle data-name="Ellipse 3" cx="1" cy="1" r="1" transform="translate(1460 2680)"/><circle data-name="Ellipse 3" cx="1" cy="1" r="1" transform="translate(1485 2680)"/><circle data-name="Ellipse 3" cx="1" cy="1" r="1" transform="translate(1510 2680)"/><circle data-name="Ellipse 3" cx="1" cy="1" r="1" transform="translate(410 2705)"/><circle data-name="Ellipse 3" cx="1" cy="1" r="1" transform="translate(435 2705)"/><circle data-name="Ellipse 3" cx="1" cy="1" r="1" transform="translate(460 2705)"/><circle data-name="Ellipse 3" cx="1" cy="1" r="1" transform="translate(485 2705)"/><circle data-name="Ellipse 3" cx="1" cy="1" r="1" transform="translate(510 2705)"/><circle data-name="Ellipse 3" cx="1" cy="1" r="1" transform="translate(535 2705)"/><circle data-name="Ellipse 3" cx="1" cy="1" r="1" transform="translate(560 2705)"/><circle data-name="Ellipse 3" cx="1" cy="1" r="1" transform="translate(585 2705)"/><circle data-name="Ellipse 3" cx="1" cy="1" r="1" transform="translate(610 2705)"/><circle data-name="Ellipse 3" cx="1" cy="1" r="1" transform="translate(635 2705)"/><circle data-name="Ellipse 3" cx="1" cy="1" r="1" transform="translate(660 2705)"/><circle data-name="Ellipse 3" cx="1" cy="1" r="1" transform="translate(685 2705)"/><circle data-name="Ellipse 3" cx="1" cy="1" r="1" transform="translate(710 2705)"/><circle data-name="Ellipse 3" cx="1" cy="1" r="1" transform="translate(735 2705)"/><circle data-name="Ellipse 3" cx="1" cy="1" r="1" transform="translate(760 2705)"/><circle data-name="Ellipse 3" cx="1" cy="1" r="1" transform="translate(785 2705)"/><circle data-name="Ellipse 3" cx="1" cy="1" r="1" transform="translate(810 2705)"/><circle data-name="Ellipse 3" cx="1" cy="1" r="1" transform="translate(835 2705)"/><circle data-name="Ellipse 3" cx="1" cy="1" r="1" transform="translate(860 2705)"/><circle data-name="Ellipse 3" cx="1" cy="1" r="1" transform="translate(885 2705)"/><circle data-name="Ellipse 3" cx="1" cy="1" r="1" transform="translate(910 2705)"/><circle data-name="Ellipse 3" cx="1" cy="1" r="1" transform="translate(935 2705)"/><circle data-name="Ellipse 3" cx="1" cy="1" r="1" transform="translate(960 2705)"/><circle data-name="Ellipse 3" cx="1" cy="1" r="1" transform="translate(985 2705)"/><circle data-name="Ellipse 3" cx="1" cy="1" r="1" transform="translate(1010 2705)"/><circle data-name="Ellipse 3" cx="1" cy="1" r="1" transform="translate(1035 2705)"/><circle data-name="Ellipse 3" cx="1" cy="1" r="1" transform="translate(1060 2705)"/><circle data-name="Ellipse 3" cx="1" cy="1" r="1" transform="translate(1085 2705)"/><circle data-name="Ellipse 3" cx="1" cy="1" r="1" transform="translate(1110 2705)"/><circle data-name="Ellipse 3" cx="1" cy="1" r="1" transform="translate(1135 2705)"/><circle data-name="Ellipse 3" cx="1" cy="1" r="1" transform="translate(1160 2705)"/><circle data-name="Ellipse 3" cx="1" cy="1" r="1" transform="translate(1185 2705)"/><circle data-name="Ellipse 3" cx="1" cy="1" r="1" transform="translate(1210 2705)"/><circle data-name="Ellipse 3" cx="1" cy="1" r="1" transform="translate(1235 2705)"/><circle data-name="Ellipse 3" cx="1" cy="1" r="1" transform="translate(1260 2705)"/><circle data-name="Ellipse 3" cx="1" cy="1" r="1" transform="translate(1285 2705)"/><circle data-name="Ellipse 3" cx="1" cy="1" r="1" transform="translate(1310 2705)"/><circle data-name="Ellipse 3" cx="1" cy="1" r="1" transform="translate(1335 2705)"/><circle data-name="Ellipse 3" cx="1" cy="1" r="1" transform="translate(1360 2705)"/><circle data-name="Ellipse 3" cx="1" cy="1" r="1" transform="translate(1385 2705)"/><circle data-name="Ellipse 3" cx="1" cy="1" r="1" transform="translate(1410 2705)"/><circle data-name="Ellipse 3" cx="1" cy="1" r="1" transform="translate(1435 2705)"/><circle data-name="Ellipse 3" cx="1" cy="1" r="1" transform="translate(1460 2705)"/><circle data-name="Ellipse 3" cx="1" cy="1" r="1" transform="translate(1485 2705)"/><circle data-name="Ellipse 3" cx="1" cy="1" r="1" transform="translate(1510 2705)"/><circle data-name="Ellipse 3" cx="1" cy="1" r="1" transform="translate(410 2730)"/><circle data-name="Ellipse 3" cx="1" cy="1" r="1" transform="translate(435 2730)"/><circle data-name="Ellipse 3" cx="1" cy="1" r="1" transform="translate(460 2730)"/><circle data-name="Ellipse 3" cx="1" cy="1" r="1" transform="translate(485 2730)"/><circle data-name="Ellipse 3" cx="1" cy="1" r="1" transform="translate(510 2730)"/><circle data-name="Ellipse 3" cx="1" cy="1" r="1" transform="translate(535 2730)"/><circle data-name="Ellipse 3" cx="1" cy="1" r="1" transform="translate(560 2730)"/><circle data-name="Ellipse 3" cx="1" cy="1" r="1" transform="translate(585 2730)"/><circle data-name="Ellipse 3" cx="1" cy="1" r="1" transform="translate(610 2730)"/><circle data-name="Ellipse 3" cx="1" cy="1" r="1" transform="translate(635 2730)"/><circle data-name="Ellipse 3" cx="1" cy="1" r="1" transform="translate(660 2730)"/><circle data-name="Ellipse 3" cx="1" cy="1" r="1" transform="translate(685 2730)"/><circle data-name="Ellipse 3" cx="1" cy="1" r="1" transform="translate(710 2730)"/><circle data-name="Ellipse 3" cx="1" cy="1" r="1" transform="translate(735 2730)"/><circle data-name="Ellipse 3" cx="1" cy="1" r="1" transform="translate(760 2730)"/><circle data-name="Ellipse 3" cx="1" cy="1" r="1" transform="translate(785 2730)"/><circle data-name="Ellipse 3" cx="1" cy="1" r="1" transform="translate(810 2730)"/><circle data-name="Ellipse 3" cx="1" cy="1" r="1" transform="translate(835 2730)"/><circle data-name="Ellipse 3" cx="1" cy="1" r="1" transform="translate(860 2730)"/><circle data-name="Ellipse 3" cx="1" cy="1" r="1" transform="translate(885 2730)"/><circle data-name="Ellipse 3" cx="1" cy="1" r="1" transform="translate(910 2730)"/><circle data-name="Ellipse 3" cx="1" cy="1" r="1" transform="translate(935 2730)"/><circle data-name="Ellipse 3" cx="1" cy="1" r="1" transform="translate(960 2730)"/><circle data-name="Ellipse 3" cx="1" cy="1" r="1" transform="translate(985 2730)"/><circle data-name="Ellipse 3" cx="1" cy="1" r="1" transform="translate(1010 2730)"/><circle data-name="Ellipse 3" cx="1" cy="1" r="1" transform="translate(1035 2730)"/><circle data-name="Ellipse 3" cx="1" cy="1" r="1" transform="translate(1060 2730)"/><circle data-name="Ellipse 3" cx="1" cy="1" r="1" transform="translate(1085 2730)"/><circle data-name="Ellipse 3" cx="1" cy="1" r="1" transform="translate(1110 2730)"/><circle data-name="Ellipse 3" cx="1" cy="1" r="1" transform="translate(1135 2730)"/><circle data-name="Ellipse 3" cx="1" cy="1" r="1" transform="translate(1160 2730)"/><circle data-name="Ellipse 3" cx="1" cy="1" r="1" transform="translate(1185 2730)"/><circle data-name="Ellipse 3" cx="1" cy="1" r="1" transform="translate(1210 2730)"/><circle data-name="Ellipse 3" cx="1" cy="1" r="1" transform="translate(1235 2730)"/><circle data-name="Ellipse 3" cx="1" cy="1" r="1" transform="translate(1260 2730)"/><circle data-name="Ellipse 3" cx="1" cy="1" r="1" transform="translate(1285 2730)"/><circle data-name="Ellipse 3" cx="1" cy="1" r="1" transform="translate(1310 2730)"/><circle data-name="Ellipse 3" cx="1" cy="1" r="1" transform="translate(1335 2730)"/><circle data-name="Ellipse 3" cx="1" cy="1" r="1" transform="translate(1360 2730)"/><circle data-name="Ellipse 3" cx="1" cy="1" r="1" transform="translate(1385 2730)"/><circle data-name="Ellipse 3" cx="1" cy="1" r="1" transform="translate(1410 2730)"/><circle data-name="Ellipse 3" cx="1" cy="1" r="1" transform="translate(1435 2730)"/><circle data-name="Ellipse 3" cx="1" cy="1" r="1" transform="translate(1460 2730)"/><circle data-name="Ellipse 3" cx="1" cy="1" r="1" transform="translate(1485 2730)"/><circle data-name="Ellipse 3" cx="1" cy="1" r="1" transform="translate(1510 2730)"/><circle data-name="Ellipse 3" cx="1" cy="1" r="1" transform="translate(410 2755)"/><circle data-name="Ellipse 3" cx="1" cy="1" r="1" transform="translate(435 2755)"/><circle data-name="Ellipse 3" cx="1" cy="1" r="1" transform="translate(460 2755)"/><circle data-name="Ellipse 3" cx="1" cy="1" r="1" transform="translate(485 2755)"/><circle data-name="Ellipse 3" cx="1" cy="1" r="1" transform="translate(510 2755)"/><circle data-name="Ellipse 3" cx="1" cy="1" r="1" transform="translate(535 2755)"/><circle data-name="Ellipse 3" cx="1" cy="1" r="1" transform="translate(560 2755)"/><circle data-name="Ellipse 3" cx="1" cy="1" r="1" transform="translate(585 2755)"/><circle data-name="Ellipse 3" cx="1" cy="1" r="1" transform="translate(610 2755)"/><circle data-name="Ellipse 3" cx="1" cy="1" r="1" transform="translate(635 2755)"/><circle data-name="Ellipse 3" cx="1" cy="1" r="1" transform="translate(660 2755)"/><circle data-name="Ellipse 3" cx="1" cy="1" r="1" transform="translate(685 2755)"/><circle data-name="Ellipse 3" cx="1" cy="1" r="1" transform="translate(710 2755)"/><circle data-name="Ellipse 3" cx="1" cy="1" r="1" transform="translate(735 2755)"/><circle data-name="Ellipse 3" cx="1" cy="1" r="1" transform="translate(760 2755)"/><circle data-name="Ellipse 3" cx="1" cy="1" r="1" transform="translate(785 2755)"/><circle data-name="Ellipse 3" cx="1" cy="1" r="1" transform="translate(810 2755)"/><circle data-name="Ellipse 3" cx="1" cy="1" r="1" transform="translate(835 2755)"/><circle data-name="Ellipse 3" cx="1" cy="1" r="1" transform="translate(860 2755)"/><circle data-name="Ellipse 3" cx="1" cy="1" r="1" transform="translate(885 2755)"/><circle data-name="Ellipse 3" cx="1" cy="1" r="1" transform="translate(910 2755)"/><circle data-name="Ellipse 3" cx="1" cy="1" r="1" transform="translate(935 2755)"/><circle data-name="Ellipse 3" cx="1" cy="1" r="1" transform="translate(960 2755)"/><circle data-name="Ellipse 3" cx="1" cy="1" r="1" transform="translate(985 2755)"/><circle data-name="Ellipse 3" cx="1" cy="1" r="1" transform="translate(1010 2755)"/><circle data-name="Ellipse 3" cx="1" cy="1" r="1" transform="translate(1035 2755)"/><circle data-name="Ellipse 3" cx="1" cy="1" r="1" transform="translate(1060 2755)"/><circle data-name="Ellipse 3" cx="1" cy="1" r="1" transform="translate(1085 2755)"/><circle data-name="Ellipse 3" cx="1" cy="1" r="1" transform="translate(1110 2755)"/><circle data-name="Ellipse 3" cx="1" cy="1" r="1" transform="translate(1135 2755)"/><circle data-name="Ellipse 3" cx="1" cy="1" r="1" transform="translate(1160 2755)"/><circle data-name="Ellipse 3" cx="1" cy="1" r="1" transform="translate(1185 2755)"/><circle data-name="Ellipse 3" cx="1" cy="1" r="1" transform="translate(1210 2755)"/><circle data-name="Ellipse 3" cx="1" cy="1" r="1" transform="translate(1235 2755)"/><circle data-name="Ellipse 3" cx="1" cy="1" r="1" transform="translate(1260 2755)"/><circle data-name="Ellipse 3" cx="1" cy="1" r="1" transform="translate(1285 2755)"/><circle data-name="Ellipse 3" cx="1" cy="1" r="1" transform="translate(1310 2755)"/><circle data-name="Ellipse 3" cx="1" cy="1" r="1" transform="translate(1335 2755)"/><circle data-name="Ellipse 3" cx="1" cy="1" r="1" transform="translate(1360 2755)"/><circle data-name="Ellipse 3" cx="1" cy="1" r="1" transform="translate(1385 2755)"/><circle data-name="Ellipse 3" cx="1" cy="1" r="1" transform="translate(1410 2755)"/><circle data-name="Ellipse 3" cx="1" cy="1" r="1" transform="translate(1435 2755)"/><circle data-name="Ellipse 3" cx="1" cy="1" r="1" transform="translate(1460 2755)"/><circle data-name="Ellipse 3" cx="1" cy="1" r="1" transform="translate(1485 2755)"/><circle data-name="Ellipse 3" cx="1" cy="1" r="1" transform="translate(1510 2755)"/></g></svg>