<svg xmlns="http://www.w3.org/2000/svg" xmlns:xlink="http://www.w3.org/1999/xlink" viewBox="0 0 294.86 85.38" width="275" height="49"><defs><style>.cls-1{fill:none;clip-rule:evenodd;}.cls-2{fill:#202659;}.cls-3{fill:#229bcd;}.cls-4{clip-path:url(#clip-path);}.cls-5{fill:url(#Безымянный_градиент_12);}</style><clipPath id="clip-path"><path class="cls-1" d="M57.79,66.07C58,66.4,40.3,83,24,78.82a22.82,22.82,0,0,1-9-4.75l8.5-8,7.75-1.25A20.8,20.8,0,0,0,46,70.49C53.09,70.24,57.68,65.9,57.79,66.07ZM3.62,51.4A31.38,31.38,0,0,0,6.79,64.24,30.13,30.13,0,0,1,2,55.9,31.21,31.21,0,0,1,.45,39.74,36.23,36.23,0,0,1,4.29,28.57a33.2,33.2,0,0,1,5.83-8.83A30.71,30.71,0,0,1,25,11.24a32.26,32.26,0,0,1,11.5-.67,31.26,31.26,0,0,1,14.84,5A21.68,21.68,0,0,1,57,21.07a25.74,25.74,0,0,0-7.33-4,28.91,28.91,0,0,0-9.83-1.67,32.33,32.33,0,0,0-9.17.84,31.69,31.69,0,0,0-12,6.16A37.44,37.44,0,0,0,8.45,33.74,32.85,32.85,0,0,0,3.62,51.4Zm9.17-36.58A52.59,52.59,0,0,0,5,21.32c-.39-.35,4.15-8,12.34-13.83A41.25,41.25,0,0,1,30.45,1.32,42.34,42.34,0,0,1,56.45,3,43.2,43.2,0,0,1,78.29,23c.9,1.74,10.61,21.23,0,40.58-6.88,12.54-21,22.72-36.17,21.75a33.38,33.38,0,0,1-13.67-4,42.12,42.12,0,0,0,19-4.67A38.41,38.41,0,0,0,61.12,65.32c1.9-2.56,10.29-14.59,6.67-30A35.87,35.87,0,0,0,55.12,15.65,37,37,0,0,0,35.45,8.32,29.1,29.1,0,0,0,23.79,9C19.16,10.3,15.86,12.64,12.79,14.82Z"/></clipPath><linearGradient id="Безымянный_градиент_12" x1="12.72" y1="92.73" x2="70.49" y2="-7.34" gradientUnits="userSpaceOnUse"><stop offset="0" stop-color="#1b205a"/><stop offset="0.14" stop-color="#192962"/><stop offset="0.37" stop-color="#144179"/><stop offset="0.66" stop-color="#0b689f"/><stop offset="0.99" stop-color="#009dd1"/></linearGradient></defs><title>Гольф лого</title><g id="Слой_2" data-name="Слой 2"><g id="Слой_1-2" data-name="Слой 1"><path class="cls-2" d="M97,47V23.87h14.08v3.27h-9.27V47Zm24.55.39A8.52,8.52,0,0,1,115.16,45a9,9,0,0,1-2.36-6.54,8.94,8.94,0,0,1,2.38-6.57,10,10,0,0,1,13,0,8.9,8.9,0,0,1,2.38,6.54A8.92,8.92,0,0,1,128.14,45,8.91,8.91,0,0,1,121.55,47.39Zm.08-2.89q4,0,4-6.11a8.11,8.11,0,0,0-1-4.43,3.4,3.4,0,0,0-5.79,0,8.18,8.18,0,0,0-1,4.46,8.13,8.13,0,0,0,1,4.43A3.22,3.22,0,0,0,121.63,44.5ZM132.38,47V43.9c1.42,0,2.37-.85,2.83-2.55a37.2,37.2,0,0,0,.75-9V29.84h13V47h-4.62V32.92h-4.1v.28q0,8-1.64,10.92T132.38,47Zm22.4,0V29.84h4.63v6.31h1.92q4.06,0,5.89,1.25a4.56,4.56,0,0,1,1.83,4.06,4.69,4.69,0,0,1-2,4.21q-2,1.34-6.3,1.33Zm4.63-2.9h1.37a4.75,4.75,0,0,0,2.73-.64,2.25,2.25,0,0,0,.91-2,2.09,2.09,0,0,0-.89-1.84,4.81,4.81,0,0,0-2.7-.62h-1.42ZM182,53.17V45.65a4.78,4.78,0,0,1-3.61,1.53,5.5,5.5,0,0,1-4.61-2.46A10.25,10.25,0,0,1,172,38.46a10.34,10.34,0,0,1,1.85-6.32,5.58,5.58,0,0,1,4.66-2.5A4.08,4.08,0,0,1,182,31.18V22.32h4.23v8.86a4,4,0,0,1,3.5-1.54,5.59,5.59,0,0,1,4.68,2.5,10.34,10.34,0,0,1,1.85,6.32,10.25,10.25,0,0,1-1.81,6.26,5.52,5.52,0,0,1-4.62,2.46,4.74,4.74,0,0,1-3.6-1.53v7.52Zm0-19.6a3.79,3.79,0,0,0-2.09-.75,2.93,2.93,0,0,0-2.5,1.64,7.52,7.52,0,0,0-1,4,7.53,7.53,0,0,0,.94,4A2.86,2.86,0,0,0,179.88,44,4.1,4.1,0,0,0,182,43.2Zm6.31-.75a3.79,3.79,0,0,0-2.08.75V43.2a4.13,4.13,0,0,0,2.14.81,2.85,2.85,0,0,0,2.5-1.52,7.44,7.44,0,0,0,1-4,7.52,7.52,0,0,0-1-4,2.93,2.93,0,0,0-2.51-1.64Zm25.14,13.8a20.84,20.84,0,0,1-5.33.77A8.71,8.71,0,0,1,201.65,45a8.94,8.94,0,0,1-2.38-6.57,8.77,8.77,0,0,1,2.45-6.58,9.36,9.36,0,0,1,6.78-2.37,20.39,20.39,0,0,1,4.83.67v3.34a15.83,15.83,0,0,0-4.55-.92,4,4,0,0,0-3.34,1.6,6.62,6.62,0,0,0-1.27,4.23,6.53,6.53,0,0,0,1.37,4.33,4.54,4.54,0,0,0,3.65,1.62,11.27,11.27,0,0,0,4.28-.9Zm7.16.38V32.92h-5.39V29.84h15.42v3.08h-5.39V47Zm13.22,6.17V29.84h4.62v3.23A6.25,6.25,0,0,1,249,31.71,9.89,9.89,0,0,1,250.72,38a10.9,10.9,0,0,1-2,6.87,6.45,6.45,0,0,1-5.36,2.57,6.86,6.86,0,0,1-4.89-2.13v7.91Zm4.62-10.66a4.86,4.86,0,0,0,3.59,1.88,3.07,3.07,0,0,0,2.72-1.65,8.31,8.31,0,0,0,1-4.4q0-5.27-3.39-5.27-2.06,0-3.94,2.64ZM255.05,47V29.84h4.34v11.8l6.85-11.8h4.62V47h-4.34V35.2L259.67,47Zm21.59,0V29.84h4.46l4.71,11.86h0l4.32-11.86h4.69V47h-4.25V35.17h0l-4,10.67h-3l-3.7-9.59h0V47Z"/><path class="cls-3" d="M97.34,66.91V56.8h8.4V66.91h-2.11V58.18H99.45v8.73Zm17-.25a9.88,9.88,0,0,1-2.74.42,4,4,0,0,1-3-1.06,3.87,3.87,0,0,1-1.09-2.91,4,4,0,0,1,1-2.81,3.44,3.44,0,0,1,2.63-1.06,2.77,2.77,0,0,1,2.41,1,5.64,5.64,0,0,1,.76,3.28h-4.66a2.12,2.12,0,0,0,2.36,2.15,6.87,6.87,0,0,0,2.3-.47Zm-3.23-6.16c-.84,0-1.32.64-1.46,1.92h2.7c0-1.28-.42-1.92-1.24-1.92Zm5.32,9.11V59.41h2v1.41a2.73,2.73,0,0,1,4.58-.59,4.3,4.3,0,0,1,.78,2.73,4.76,4.76,0,0,1-.88,3,2.8,2.8,0,0,1-2.34,1.12,3,3,0,0,1-2.14-.93v3.46Zm2-4.66a2.1,2.1,0,0,0,1.57.82,1.35,1.35,0,0,0,1.19-.72,3.69,3.69,0,0,0,.44-1.92c0-1.54-.49-2.31-1.48-2.31A2.24,2.24,0,0,0,118.5,62Zm13.36,1.71a9.88,9.88,0,0,1-2.74.42,4,4,0,0,1-3-1.06,3.87,3.87,0,0,1-1.09-2.91,4,4,0,0,1,1-2.81,3.44,3.44,0,0,1,2.63-1.06,2.77,2.77,0,0,1,2.41,1,5.64,5.64,0,0,1,.76,3.28H127.2a2.12,2.12,0,0,0,2.36,2.15,6.87,6.87,0,0,0,2.3-.47Zm-3.23-6.16c-.84,0-1.32.64-1.46,1.92h2.7c0-1.28-.42-1.92-1.24-1.92ZM134,66.91v-7.5h3a4.82,4.82,0,0,1,2.27.42,1.39,1.39,0,0,1,.76,1.29,1.73,1.73,0,0,1-.41,1.16,2.57,2.57,0,0,1-1.23.71,3,3,0,0,1,1.45.74,1.73,1.73,0,0,1,.49,1.26,1.61,1.61,0,0,1-.72,1.48,4.72,4.72,0,0,1-2.34.44Zm1.9-4.45h.59a2.09,2.09,0,0,0,1.15-.25.86.86,0,0,0,.39-.77.67.67,0,0,0-.38-.61,2.49,2.49,0,0,0-1.12-.2h-.63Zm0,3.23h.51a4.42,4.42,0,0,0,1.52-.17.74.74,0,0,0,.37-.73,1,1,0,0,0-.45-.89,2.52,2.52,0,0,0-1.36-.3h-.59Zm9.57,1.39A3.71,3.71,0,0,1,142.63,66a3.92,3.92,0,0,1-1-2.86,3.88,3.88,0,0,1,1-2.87,4.35,4.35,0,0,1,5.67,0,3.86,3.86,0,0,1,1.05,2.86,3.62,3.62,0,0,1-3.94,3.93Zm0-1.26q1.74,0,1.74-2.67a3.53,3.53,0,0,0-.46-1.94,1.48,1.48,0,0,0-2.53,0,3.56,3.56,0,0,0-.46,1.95,3.53,3.53,0,0,0,.46,1.94A1.41,1.41,0,0,0,145.46,65.82Zm4.82,2.78v-3H151a6.44,6.44,0,0,0,1.1-2.26,11.81,11.81,0,0,0,.36-3.07v-.83H158v6.16h1.26v3h-1.94V66.91h-5.12V68.6Zm5.8-3V60.69h-1.86v.08a10.9,10.9,0,0,1-.28,2.53,9.74,9.74,0,0,1-.86,2.27Zm8.67,1.34V64.09a5.13,5.13,0,0,1-1.76.34,2.4,2.4,0,0,1-2-.67,4.19,4.19,0,0,1-.53-2.5V59.41h2v2.1a2.73,2.73,0,0,0,.22,1.32,1,1,0,0,0,.88.34,2.54,2.54,0,0,0,1.14-.29V59.41h2v7.5Zm10.67-.25a9.83,9.83,0,0,1-2.74.42,4,4,0,0,1-3-1.06,3.87,3.87,0,0,1-1.09-2.91,4,4,0,0,1,1-2.81,3.44,3.44,0,0,1,2.63-1.06,2.77,2.77,0,0,1,2.41,1,5.64,5.64,0,0,1,.76,3.28h-4.66a2.13,2.13,0,0,0,2.36,2.15,6.83,6.83,0,0,0,2.3-.47Zm-3.23-6.16c-.84,0-1.32.64-1.46,1.92h2.7c0-1.28-.41-1.92-1.24-1.92Zm10.86,6.25a9.2,9.2,0,0,1-2.33.33,3.83,3.83,0,0,1-2.84-1,3.94,3.94,0,0,1-1-2.88,3.82,3.82,0,0,1,1.07-2.87,4.07,4.07,0,0,1,3-1,8.76,8.76,0,0,1,2.11.29V61a6.78,6.78,0,0,0-2-.4,1.76,1.76,0,0,0-1.46.7,2.87,2.87,0,0,0-.56,1.85,2.82,2.82,0,0,0,.6,1.89,2,2,0,0,0,1.6.71,5,5,0,0,0,1.87-.39Zm1.92.16v-7.5h1.89v3.11a1.37,1.37,0,0,0,.86-.21,5.33,5.33,0,0,0,.78-1.19l.2-.36a2.86,2.86,0,0,1,.87-1.1,2.76,2.76,0,0,1,1.34-.25h.3v1.26H191a.85.85,0,0,0-.54.14,1.9,1.9,0,0,0-.45.62l-.2.37-.21.38a1.91,1.91,0,0,1-1.13.91,2.43,2.43,0,0,1,1,.49,5,5,0,0,1,.85,1.19l.23.4.38.62.41.69a4.56,4.56,0,0,0,.29.43h-2.14l-.17-.3-.31-.59a10,10,0,0,0-1.51-2.22h-.68v3.11Zm11.57.17a3.72,3.72,0,0,1-2.8-1.06,4.48,4.48,0,0,1,0-5.73,4.35,4.35,0,0,1,5.67,0,3.86,3.86,0,0,1,1.05,2.86,3.62,3.62,0,0,1-3.93,3.93Zm0-1.26q1.74,0,1.74-2.67a3.53,3.53,0,0,0-.46-1.94,1.48,1.48,0,0,0-2.53,0,3.65,3.65,0,0,0-.46,1.95,3.53,3.53,0,0,0,.46,1.94A1.41,1.41,0,0,0,196.57,65.82Zm11.86.84a9.76,9.76,0,0,1-2.73.42,4.06,4.06,0,0,1-3-1.06,3.91,3.91,0,0,1-1.09-2.91,4,4,0,0,1,1-2.81,3.42,3.42,0,0,1,2.63-1.06,2.74,2.74,0,0,1,2.4,1,5.57,5.57,0,0,1,.76,3.28h-4.65a2.12,2.12,0,0,0,2.36,2.15,6.82,6.82,0,0,0,2.29-.47Zm-3.22-6.16c-.84,0-1.33.64-1.46,1.92h2.69q0-1.92-1.23-1.92Z"/><path class="cls-3" d="M218.8,66.11a3.08,3.08,0,0,1-2.17,1,2.2,2.2,0,0,1-1.6-.6,2.08,2.08,0,0,1-.61-1.56,2.17,2.17,0,0,1,1-1.91,5.09,5.09,0,0,1,2.85-.68h.54v-.68c0-.78-.44-1.17-1.33-1.17a4.91,4.91,0,0,0-2.4.67V59.76a7.63,7.63,0,0,1,2.73-.52q2.94,0,2.94,2.34V64.9c0,.59.19.89.57.89l.27,0,0,1.13a3.86,3.86,0,0,1-1.13.19,1.51,1.51,0,0,1-1.6-1Zm-1.46-.4A2.19,2.19,0,0,0,218.8,65V63.5h-.48c-1.31,0-2,.41-2,1.23a1,1,0,0,0,1,1Zm6,1.2v-7.5h5.74v1.43h-3.71v6.07Zm13.29-.25a9.88,9.88,0,0,1-2.74.42,4.08,4.08,0,0,1-3-1.06,3.9,3.9,0,0,1-1.08-2.91,4,4,0,0,1,1-2.81,3.42,3.42,0,0,1,2.63-1.06,2.77,2.77,0,0,1,2.41,1,5.64,5.64,0,0,1,.76,3.28H232a2.12,2.12,0,0,0,2.36,2.15,6.87,6.87,0,0,0,2.3-.47Zm-3.23-6.16c-.84,0-1.33.64-1.46,1.92h2.7c0-1.28-.42-1.92-1.24-1.92Zm5.32,6.41v-7.5h2v2.9h2.7v-2.9h2v7.5h-2V63.57h-2.7v3.34Zm14.81-.16a9.26,9.26,0,0,1-2.33.33,3.81,3.81,0,0,1-2.84-1,3.9,3.9,0,0,1-1-2.88,3.79,3.79,0,0,1,1.07-2.87,4,4,0,0,1,3-1,8.76,8.76,0,0,1,2.11.29V61a6.78,6.78,0,0,0-2-.4,1.76,1.76,0,0,0-1.46.7,2.87,2.87,0,0,0-.56,1.85,2.82,2.82,0,0,0,.6,1.89,2,2,0,0,0,1.6.71,5,5,0,0,0,1.87-.39Zm3.13.16V60.75h-2.36V59.41h6.75v1.34H258.7v6.16Zm5.78,0v-7.5h3a4.82,4.82,0,0,1,2.27.42,1.39,1.39,0,0,1,.76,1.29,1.73,1.73,0,0,1-.41,1.16,2.52,2.52,0,0,1-1.23.71,3,3,0,0,1,1.45.74,1.73,1.73,0,0,1,.49,1.26,1.61,1.61,0,0,1-.72,1.48,4.72,4.72,0,0,1-2.34.44Zm1.9-4.45h.59a2.09,2.09,0,0,0,1.15-.25.86.86,0,0,0,.39-.77.67.67,0,0,0-.38-.61,2.49,2.49,0,0,0-1.12-.2h-.63Zm0,3.23h.51a4.42,4.42,0,0,0,1.52-.17.74.74,0,0,0,.37-.73,1,1,0,0,0-.45-.89,2.52,2.52,0,0,0-1.36-.3h-.59Zm9.57,1.39A3.71,3.71,0,0,1,271.13,66a3.92,3.92,0,0,1-1-2.86,3.88,3.88,0,0,1,1-2.87,4.35,4.35,0,0,1,5.67,0,3.85,3.85,0,0,1,1,2.86,3.61,3.61,0,0,1-3.93,3.93Zm0-1.26q1.74,0,1.74-2.67a3.53,3.53,0,0,0-.46-1.94,1.48,1.48,0,0,0-2.53,0,3.56,3.56,0,0,0-.46,1.95,3.53,3.53,0,0,0,.46,1.94A1.41,1.41,0,0,0,274,65.82Z"/><g class="cls-4"><rect class="cls-5" width="83.21" height="85.38"/></g></g></g></svg>