<svg xmlns="http://www.w3.org/2000/svg" xmlns:xlink="http://www.w3.org/1999/xlink" width="275" height="49" viewBox="0 0 275 49"><defs><path id="8n74a" d="M435.293 46.505c-5.35-2.688-13.346-4.587-15.113-4.99l3.3-2.475-.095-.13c-.332-.437-8.198-10.721-14.651-9.422-1.561.316-2.673 1.058-3.3 2.205A4.7 4.7 0 0 0 405 32.82c.004-2.051.42-4.201 1.543-6.037 1.561-2.552 4.214-4.07 7.888-4.501 11.008-1.3 19.529 9.849 19.613 9.96l.108.143 1.883-1.428c.416 1.438 2.414 9.153-.742 15.547z"/><path id="8n74c" d="M445.584 60.274c-.003 2.05-.42 4.2-1.543 6.037-1.561 2.552-4.213 4.069-7.887 4.5-.609.073-1.208.106-1.799.106-10.127 0-17.734-9.961-17.814-10.066l-.109-.145-1.882 1.428c-.417-1.435-2.415-9.15.741-15.544 5.347 2.684 13.346 4.587 15.114 4.989l-3.3 2.476.094.129c.312.412 7.282 9.536 13.483 9.536.395 0 .784-.037 1.169-.116 1.56-.313 2.673-1.058 3.299-2.206.196-.353.336-.732.434-1.124z"/><path id="8n74e" d="M455.128 71V22h2.09v49z"/><path id="8n74f" d="M483.038 29.993h-10.655l.032 18.175h-5.151V25.77h15.807z"/><path id="8n74g" d="M494.622 39.56c0-2.975-1.887-4.767-4.383-4.767s-4.416 1.792-4.416 4.768c0 2.975 1.92 4.767 4.416 4.767 2.496 0 4.383-1.792 4.383-4.767zm-13.854 0c0-5.183 3.998-8.863 9.471-8.863 5.471 0 9.439 3.68 9.439 8.864 0 5.183-3.968 8.863-9.439 8.863-5.473 0-9.471-3.68-9.471-8.863z"/><path id="8n74h" d="M520.157 30.953v17.215h-4.99v-13.12h-5.44l-.16 3.04c-.256 6.145-1.248 10.432-5.504 10.432-.768 0-1.6-.128-2.592-.384l.256-4.096c.256.032.512.065.736.065 2.368 0 2.559-2.976 2.719-6.241l.256-6.911z"/><path id="8n74i" d="M536.926 42.12c0-1.695-1.056-2.4-2.976-2.431l-3.233-.033v4.993h3.233c1.92.032 2.976-.832 2.976-2.53zm5.086.065c0 3.807-2.814 6.015-7.615 6.015l-8.639-.032V30.953h4.959v5.504h4.352c4.512.032 6.943 2.112 6.943 5.728z"/><path id="8n74j" d="M559.389 44.616V34.6c3.84.385 5.504 1.984 5.504 4.896 0 3.039-1.664 4.703-5.504 5.119zm-10.047-5.12c0-2.88 1.631-4.51 5.471-4.895v10.015c-3.84-.416-5.471-2.08-5.471-5.12zm20.35 0c0-5.311-3.742-8.32-10.303-8.766v-6.304h-4.576v6.304c-6.654.447-10.303 3.423-10.303 8.767 0 5.44 3.713 8.543 10.303 8.99v5.889h4.576v-5.888c6.561-.48 10.303-3.616 10.303-8.991z"/><path id="8n74k" d="M572.479 39.56c0-5.183 3.998-8.863 9.598-8.863 3.617 0 6.465 1.568 7.713 4.384l-3.873 2.08c-.928-1.632-2.303-2.368-3.872-2.368-2.527 0-4.511 1.76-4.511 4.768s1.984 4.767 4.511 4.767c1.569 0 2.944-.704 3.872-2.368l3.873 2.112c-1.248 2.752-4.096 4.352-7.713 4.352-5.6 0-9.598-3.68-9.598-8.863z"/><path id="8n74l" d="M608.028 35.049h-5.822v13.119h-4.961v-13.12h-5.823v-4.095h16.606z"/><path id="8n74m" d="M625.149 39.56c0-2.975-1.889-4.767-4.385-4.767-2.494 0-4.383 1.792-4.383 4.768 0 2.975 1.889 4.767 4.383 4.767 2.496 0 4.385-1.792 4.385-4.767zm5.055 0c0 5.408-3.743 8.864-8.575 8.864-2.144 0-3.904-.672-5.183-2.08v8.032h-4.992V30.953h4.767v1.985c1.248-1.504 3.104-2.241 5.408-2.241 4.832 0 8.575 3.456 8.575 8.864z"/><path id="8n74n" d="M634.493 30.953h4.961v10.24l8.382-10.24h4.577v17.215h-4.961v-10.24l-8.35 10.24h-4.609z"/><path id="8n74o" d="M674.811 48.168V37.864l-5.15 8.64h-2.112l-5.025-8.671v10.335h-4.512V30.953h5.217l5.504 9.95 5.855-9.95h4.672l.063 17.215z"/><path id="8n74p" d="M474.914 58.16v8.397h-1.931v-6.813h-3.79v6.813h-1.932V58.16z"/><path id="8n74q" d="M478.193 62.767h3.179c-.132-.816-.745-1.343-1.583-1.343-.852 0-1.464.516-1.596 1.343zm4.905 1.092h-4.881c.18.803.864 1.294 1.847 1.294.684 0 1.176-.204 1.619-.624l.996 1.08c-.6.684-1.5 1.044-2.663 1.044-2.23 0-3.681-1.404-3.681-3.323 0-1.93 1.474-3.322 3.441-3.322 1.895 0 3.358 1.27 3.358 3.347 0 .143-.023.347-.036.504z"/><path id="8n74r" d="M489.699 63.33c0-1.115-.707-1.787-1.643-1.787-.935 0-1.643.672-1.643 1.787 0 1.115.708 1.787 1.643 1.787.936 0 1.643-.672 1.643-1.787zm1.895 0c0 2.028-1.403 3.323-3.215 3.323-.803 0-1.462-.252-1.942-.78v3.01h-1.871v-8.778h1.787v.743c.468-.564 1.163-.84 2.026-.84 1.812 0 3.215 1.296 3.215 3.322z"/><path id="8n74s" d="M494.237 62.767h3.179c-.132-.816-.745-1.343-1.583-1.343-.852 0-1.464.516-1.596 1.343zm4.905 1.092h-4.881c.18.803.864 1.294 1.847 1.294.684 0 1.176-.204 1.619-.624l.995 1.08c-.599.684-1.499 1.044-2.662 1.044-2.23 0-3.682-1.404-3.682-3.323 0-1.93 1.475-3.322 3.442-3.322 1.895 0 3.358 1.27 3.358 3.347 0 .143-.023.347-.036.504z"/><path id="8n74t" d="M504.939 64.578c0 .48-.348.707-1.031.707h-1.572v-1.426h1.608c.683 0 .995.227.995.719zm-2.603-3.203h1.415c.649 0 .985.217.985.685 0 .455-.336.695-.985.695h-1.415zm3.215 1.812c.6-.277.948-.768.948-1.415 0-1.056-.96-1.667-2.58-1.667h-3.297v6.452h3.442c1.774 0 2.626-.695 2.626-1.835 0-.768-.384-1.283-1.139-1.535z"/><path id="8n74u" d="M512.751 63.33c0-1.115-.708-1.787-1.643-1.787-.936 0-1.655.672-1.655 1.787 0 1.115.719 1.787 1.655 1.787.935 0 1.643-.672 1.643-1.787zm-5.193 0c0-1.942 1.499-3.322 3.55-3.322 2.051 0 3.538 1.38 3.538 3.322 0 1.944-1.487 3.323-3.538 3.323-2.051 0-3.55-1.38-3.55-3.323z"/><path id="8n74v" d="M517.552 65.022h2.723V61.64h-2.11l-.037.827c-.036 1.092-.12 2.075-.576 2.555zm5.518 0v2.926h-1.739v-1.391h-4.534v1.39h-1.739v-2.925h.264c.888-.025 1.043-1.284 1.115-2.687l.084-2.23h5.625v4.917z"/><path id="8n74w" d="M530.053 60.105v6.452h-1.871v-2.4a3.938 3.938 0 0 1-1.799.409c-1.703 0-2.638-.744-2.638-2.435v-2.026h1.871v1.906c0 .804.444 1.116 1.187 1.116.492 0 .96-.108 1.379-.312v-2.71z"/><path id="8n74x" d="M533.188 62.767h3.179c-.132-.816-.744-1.343-1.583-1.343-.852 0-1.464.516-1.596 1.343zm4.905 1.092h-4.881c.18.803.864 1.294 1.847 1.294.684 0 1.176-.204 1.619-.624l.995 1.08c-.599.684-1.499 1.044-2.662 1.044-2.23 0-3.681-1.404-3.681-3.323 0-1.93 1.474-3.322 3.441-3.322 1.896 0 3.358 1.27 3.358 3.347 0 .143-.023.347-.036.504z"/><path id="8n74y" d="M539.045 63.33c0-1.942 1.499-3.322 3.598-3.322 1.356 0 2.423.588 2.891 1.644l-1.451.779c-.348-.611-.864-.888-1.452-.888-.947 0-1.691.66-1.691 1.787 0 1.128.744 1.787 1.691 1.787.588 0 1.104-.263 1.452-.887l1.451.792c-.468 1.03-1.535 1.63-2.891 1.63-2.099 0-3.598-1.378-3.598-3.322z"/><path id="8n74z" d="M549.519 64.11h-.972v2.447h-1.871v-6.452h1.871v2.506h1.008l1.751-2.506h1.99l-2.254 3.093 2.411 3.359h-2.207z"/><path id="8n74A" d="M558.841 63.33c0-1.115-.707-1.787-1.642-1.787-.936 0-1.656.672-1.656 1.787 0 1.115.72 1.787 1.656 1.787.935 0 1.642-.672 1.642-1.787zm-5.192 0c0-1.942 1.499-3.322 3.55-3.322 2.051 0 3.538 1.38 3.538 3.322 0 1.944-1.487 3.323-3.538 3.323-2.051 0-3.55-1.38-3.55-3.323z"/><path id="8n74B" d="M563.356 62.767h3.179c-.132-.816-.744-1.343-1.583-1.343-.852 0-1.464.516-1.596 1.343zm4.905 1.092h-4.881c.18.803.864 1.294 1.847 1.294.684 0 1.176-.204 1.619-.624l.995 1.08c-.599.684-1.499 1.044-2.662 1.044-2.23 0-3.681-1.404-3.681-3.323 0-1.93 1.474-3.322 3.441-3.322 1.896 0 3.358 1.27 3.358 3.347 0 .143-.023.347-.036.504z"/><path id="8n74C" d="M576.878 64.518v-.66h-1.283c-.876 0-1.151.324-1.151.755 0 .468.395.78 1.056.78.623 0 1.163-.287 1.378-.875zm1.872-1.643v3.682h-1.751v-.804c-.349.588-1.02.9-1.967.9-1.512 0-2.411-.84-2.411-1.956 0-1.138.803-1.93 2.77-1.93h1.487c0-.804-.479-1.272-1.487-1.272-.683 0-1.391.229-1.859.6l-.671-1.307c.707-.504 1.751-.78 2.782-.78 1.967 0 3.107.912 3.107 2.867z"/><path id="8n74D" d="M585.553 61.64h-3.309v4.917h-1.86v-6.452h5.169z"/><path id="8n74E" d="M587.62 62.767h3.178c-.131-.816-.744-1.343-1.583-1.343-.851 0-1.464.516-1.595 1.343zm4.905 1.092h-4.881c.18.803.863 1.294 1.847 1.294.683 0 1.176-.204 1.619-.624l.995 1.08c-.6.684-1.499 1.044-2.662 1.044-2.231 0-3.682-1.404-3.682-3.323 0-1.93 1.475-3.322 3.442-3.322 1.895 0 3.358 1.27 3.358 3.347 0 .143-.023.347-.036.504z"/><path id="8n74F" d="M594.004 60.105h1.86v2.518h2.805v-2.518h1.872v6.452h-1.872v-2.411h-2.805v2.41h-1.86z"/><path id="8n74G" d="M607.752 61.64h-2.182v4.917h-1.86V61.64h-2.182v-1.535h6.224z"/><path id="8n74H" d="M607.96 63.33c0-1.942 1.5-3.322 3.598-3.322 1.356 0 2.423.588 2.891 1.644l-1.451.779c-.348-.611-.864-.888-1.452-.888-.947 0-1.691.66-1.691 1.787 0 1.128.744 1.787 1.691 1.787.588 0 1.104-.263 1.452-.887l1.451.792c-.468 1.03-1.535 1.63-2.891 1.63-2.098 0-3.598-1.378-3.598-3.322z"/><path id="8n74I" d="M620.989 61.64h-2.183v4.917h-1.859V61.64h-2.183v-1.535h6.225z"/><path id="8n74J" d="M625.274 65.285h-1.571v-1.426h1.607c.684 0 .995.227.995.719 0 .48-.347.707-1.031.707zm-1.571-3.91h1.416c.647 0 .983.217.983.685 0 .455-.336.695-.983.695h-1.416zm4.353 3.347c0-.768-.384-1.283-1.138-1.535.599-.277.947-.768.947-1.415 0-1.056-.96-1.667-2.579-1.667h-3.298v6.452h3.442c1.775 0 2.626-.695 2.626-1.835z"/><path id="8n74K" d="M634.117 63.33c0-1.115-.707-1.787-1.643-1.787-.935 0-1.655.672-1.655 1.787 0 1.115.72 1.787 1.655 1.787.936 0 1.643-.672 1.643-1.787zm-5.193 0c0-1.942 1.499-3.322 3.55-3.322 2.051 0 3.538 1.38 3.538 3.322 0 1.944-1.487 3.323-3.538 3.323-2.051 0-3.55-1.38-3.55-3.323z"/><linearGradient id="8n74b" x1="405" x2="437.04" y1="34.33" y2="34.33" gradientUnits="userSpaceOnUse"><stop offset="0" stop-color="#11162a"/><stop offset=".08" stop-color="#0f1f36"/><stop offset=".71" stop-color="#046691"/><stop offset="1" stop-color="#0083b5"/></linearGradient><linearGradient id="8n74d" x1="413.54" x2="445.58" y1="58.75" y2="58.75" gradientUnits="userSpaceOnUse"><stop offset="0" stop-color="#11162a"/><stop offset=".08" stop-color="#0f1f36"/><stop offset=".71" stop-color="#046691"/><stop offset="1" stop-color="#0083b5"/></linearGradient></defs><g><g transform="translate(-405 -22)"><g><g><use fill="url(#8n74b)" xlink:href="#8n74a"/></g></g><g><g><use fill="url(#8n74d)" xlink:href="#8n74c"/></g></g><g><use fill="#0082b5" xlink:href="#8n74e"/></g><g><g><use fill="#121529" xlink:href="#8n74f"/></g><g><use fill="#121529" xlink:href="#8n74g"/></g><g><use fill="#121529" xlink:href="#8n74h"/></g><g><use fill="#121529" xlink:href="#8n74i"/></g><g><use fill="#121529" xlink:href="#8n74j"/></g><g><use fill="#121529" xlink:href="#8n74k"/></g><g><use fill="#121529" xlink:href="#8n74l"/></g><g><use fill="#121529" xlink:href="#8n74m"/></g><g><use fill="#121529" xlink:href="#8n74n"/></g><g><use fill="#121529" xlink:href="#8n74o"/></g></g><g><g><use fill="#0082b5" xlink:href="#8n74p"/></g><g><use fill="#0082b5" xlink:href="#8n74q"/></g><g><use fill="#0082b5" xlink:href="#8n74r"/></g><g><use fill="#0082b5" xlink:href="#8n74s"/></g><g><use fill="#0082b5" xlink:href="#8n74t"/></g><g><use fill="#0082b5" xlink:href="#8n74u"/></g><g><use fill="#0082b5" xlink:href="#8n74v"/></g><g><use fill="#0082b5" xlink:href="#8n74w"/></g><g><use fill="#0082b5" xlink:href="#8n74x"/></g><g><use fill="#0082b5" xlink:href="#8n74y"/></g><g><use fill="#0082b5" xlink:href="#8n74z"/></g><g><use fill="#0082b5" xlink:href="#8n74A"/></g><g><use fill="#0082b5" xlink:href="#8n74B"/></g><g><use fill="#0082b5" xlink:href="#8n74C"/></g><g><use fill="#0082b5" xlink:href="#8n74D"/></g><g><use fill="#0082b5" xlink:href="#8n74E"/></g><g><use fill="#0082b5" xlink:href="#8n74F"/></g><g><use fill="#0082b5" xlink:href="#8n74G"/></g><g><use fill="#0082b5" xlink:href="#8n74H"/></g><g><use fill="#0082b5" xlink:href="#8n74I"/></g><g><use fill="#0082b5" xlink:href="#8n74J"/></g><g><use fill="#0082b5" xlink:href="#8n74K"/></g></g></g></g></svg>