<svg xmlns="http://www.w3.org/2000/svg" xmlns:xlink="http://www.w3.org/1999/xlink" width="10" height="18" viewBox="0 0 10 18"><defs><path id="68o6a" d="M1175.363 2050.004l-2.333-.004c-2.622 0-4.317 1.738-4.317 4.429v2.042h-2.346a.367.367 0 0 0-.367.367v2.959c0 .202.164.367.367.367h2.346v7.465c0 .203.165.367.367.367h3.062a.367.367 0 0 0 .367-.367v-7.465h2.743a.367.367 0 0 0 .367-.367l.001-2.959a.367.367 0 0 0-.367-.367h-2.744v-1.731c0-.832.198-1.255 1.282-1.255h1.572a.367.367 0 0 0 .367-.367v-2.747a.367.367 0 0 0-.367-.367z"/></defs><g><g transform="translate(-1166 -2050)"><use fill="#474747" xlink:href="#68o6a"/></g></g></svg>