<svg xmlns="http://www.w3.org/2000/svg" width="15" height="20" viewBox="0 0 15 20"><g><g><g><g><g><path fill="#0093c1" d="M14.06 19.014a.05.05 0 0 1-.049.05H.986a.05.05 0 0 1-.05-.05V.986a.05.05 0 0 1 .05-.05h9.49v2.6c0 .543.442.985.986.985h2.598v14.493zM11.412 1.6l1.986 1.985h-1.936a.05.05 0 0 1-.05-.049zm3.584 2.449a.468.468 0 0 0-.136-.326L11.275.137A.466.466 0 0 0 10.944 0H.986A.987.987 0 0 0 0 .986v18.028c0 .544.442.986.986.986H14.01a.987.987 0 0 0 .986-.986V4.053l-.001-.005z"/></g></g></g><g><g><g><path fill="#0093c1" d="M11.068 6.45h-7.14a.403.403 0 0 0 0 .807h7.14a.403.403 0 0 0 0-.807z"/></g></g></g><g><g><g><path fill="#0093c1" d="M11.068 9.295h-7.14a.403.403 0 0 0 0 .807h7.14a.403.403 0 0 0 0-.807z"/></g></g></g><g><g><g><path fill="#0093c1" d="M11.068 12.14h-7.14a.403.403 0 0 0 0 .807h7.14a.403.403 0 0 0 0-.807z"/></g></g></g><g><g><g><path fill="#0093c1" d="M7.064 14.985h-3.57a.403.403 0 0 0 0 .807h3.57a.403.403 0 0 0 0-.807z"/></g></g></g></g></g></svg>