<svg xmlns="http://www.w3.org/2000/svg" xmlns:xlink="http://www.w3.org/1999/xlink" width="19" height="18" viewBox="0 0 19 18"><defs><path id="ktoha" d="M1231.889 2063.03a3.373 3.373 0 0 1-3.37 3.37h-8.064a3.373 3.373 0 0 1-3.37-3.37v-8.064a3.373 3.373 0 0 1 3.37-3.37h8.064a3.373 3.373 0 0 1 3.37 3.37v8.064zm-3.37-13.03h-8.064a4.972 4.972 0 0 0-4.966 4.966v8.064a4.972 4.972 0 0 0 4.966 4.966h8.064a4.972 4.972 0 0 0 4.966-4.966v-8.064a4.972 4.972 0 0 0-4.966-4.966z"/><path id="ktohb" d="M1224.487 2062.038a3.044 3.044 0 0 1-3.04-3.04 3.044 3.044 0 0 1 3.04-3.04 3.044 3.044 0 0 1 3.04 3.04 3.044 3.044 0 0 1-3.04 3.04zm0-7.677a4.642 4.642 0 0 0-4.637 4.637 4.642 4.642 0 0 0 4.637 4.637 4.642 4.642 0 0 0 4.637-4.637 4.642 4.642 0 0 0-4.637-4.637z"/><path id="ktohc" d="M1229.319 2053.007a1.176 1.176 0 0 0-1.171 1.171c0 .308.126.61.344.828.217.217.52.343.827.343.309 0 .61-.126.828-.343a1.176 1.176 0 0 0 0-1.656 1.176 1.176 0 0 0-.828-.343z"/></defs><g><g transform="translate(-1215 -2050)"><g><use fill="#474747" xlink:href="#ktoha"/></g><g><use fill="#474747" xlink:href="#ktohb"/></g><g><use fill="#474747" xlink:href="#ktohc"/></g></g></g></svg>