<svg xmlns="http://www.w3.org/2000/svg" xmlns:xlink="http://www.w3.org/1999/xlink" width="21" height="16" viewBox="0 0 21 16"><defs><path id="4zl5a" d="M1337.92 983.911l-6.63 7.42a2.593 2.593 0 0 1-.338-1.263v-10.5c0-.513.154-.989.41-1.394zm12.792 8.379a2.593 2.593 0 0 1-1.385.403h-15.75c-.51 0-.981-.15-1.384-.403l6.715-7.514 2.112 1.85a.656.656 0 0 0 .864 0l2.113-1.85zm-18.385-15.016c.373-.205.795-.33 1.25-.33h15.75c.455 0 .877.125 1.252.33l-9.127 7.985zm19.625 12.794c0 .46-.13.888-.337 1.263l-6.63-7.419 6.559-5.738c.255.405.408.88.408 1.395z"/></defs><g><g transform="translate(-1331 -977)"><use fill="#fff" xlink:href="#4zl5a"/></g></g></svg>