<svg xmlns="http://www.w3.org/2000/svg" xmlns:xlink="http://www.w3.org/1999/xlink" width="22" height="23" viewBox="0 0 22 23"><defs><path id="se22a" d="M1347.751 861.963c-.722-.713-1.623-.713-2.34 0a137.07 137.07 0 0 0-1.634 1.637c-.147.152-.271.184-.45.083-.355-.193-.732-.35-1.072-.56-1.587-.999-2.916-2.282-4.094-3.726-.584-.718-1.103-1.486-1.467-2.35-.073-.176-.06-.29.083-.433.547-.53 1.08-1.072 1.619-1.615.75-.754.75-1.637-.005-2.396-.427-.432-.855-.855-1.283-1.288-.441-.441-.878-.887-1.325-1.324-.722-.704-1.623-.704-2.34.004-.553.543-1.082 1.1-1.643 1.633-.52.492-.782 1.095-.837 1.798-.087 1.146.193 2.227.589 3.28.81 2.18 2.042 4.116 3.537 5.892 2.02 2.4 4.43 4.3 7.249 5.67 1.27.617 2.585 1.09 4.015 1.17.984.054 1.84-.194 2.525-.962.47-.525.998-1.003 1.495-1.504.736-.745.74-1.647.01-2.383-.875-.878-1.753-1.752-2.632-2.626z"/><path id="se22b" d="M1346.873 858.297l1.697-.29a7.586 7.586 0 0 0-2.12-4.093 7.545 7.545 0 0 0-4.324-2.157l-.24 1.706a5.853 5.853 0 0 1 3.35 1.67 5.852 5.852 0 0 1 1.637 3.164z"/><path id="se22c" d="M1349.527 850.92a12.514 12.514 0 0 0-7.176-3.579l-.239 1.707a10.851 10.851 0 0 1 6.2 3.09 10.842 10.842 0 0 1 3.04 5.865l1.698-.29a12.606 12.606 0 0 0-3.523-6.793z"/></defs><g><g transform="translate(-1331 -847)"><g><use fill="#fff" xlink:href="#se22a"/></g><g><use fill="#fff" xlink:href="#se22b"/></g><g><use fill="#fff" xlink:href="#se22c"/></g></g></g></svg>