<svg xmlns="http://www.w3.org/2000/svg" xmlns:xlink="http://www.w3.org/1999/xlink" width="20" height="20" viewBox="0 0 20 20"><defs><path id="p7s8a" d="M1116.2 2057.677a6.606 6.606 0 0 1 6.598-6.6 6.606 6.606 0 0 1 6.6 6.6c0 3.636-2.959 6.602-6.6 6.602-3.636 0-6.598-2.962-6.598-6.602zm16.77 9.409l-4.375-4.375a7.646 7.646 0 0 0 1.884-5.034c0-4.236-3.445-7.677-7.677-7.677-4.235 0-7.676 3.445-7.676 7.677 0 4.231 3.445 7.676 7.676 7.676 1.925 0 3.685-.71 5.034-1.884l4.376 4.375a.526.526 0 0 0 .758 0 .54.54 0 0 0 0-.758z"/></defs><g><g transform="translate(-1114 -2049)"><use fill="#474747" xlink:href="#p7s8a"/><use fill="#fff" fill-opacity="0" stroke="#474747" stroke-miterlimit="50" xlink:href="#p7s8a"/></g></g></svg>