<svg xmlns="http://www.w3.org/2000/svg" xmlns:xlink="http://www.w3.org/1999/xlink" width="23" height="19" viewBox="0 0 23 19"><defs><path id="6ss2a" d="M1346.705 916.708l-9.346 8.265a.502.502 0 0 0-.167.32l-.36 3.198c-.011.105-.157.118-.188.018l-1.48-4.77a.502.502 0 0 1 .214-.576l11.037-6.845c.253-.157.513.192.29.39zm2.522-3.645l-20.12 7.84c-.652.255-.613 1.19.058 1.388l5.113 1.51 1.908 6.055c.2.632 1 .824 1.465.35l2.643-2.699 5.187 3.807c.635.466 1.539.12 1.7-.65l3.435-16.425a1.035 1.035 0 0 0-1.389-1.176z"/></defs><g><g transform="translate(-1328 -913)"><use fill="#fff" xlink:href="#6ss2a"/></g></g></svg>