<svg xmlns="http://www.w3.org/2000/svg" xmlns:xlink="http://www.w3.org/1999/xlink" width="23" height="18" viewBox="0 0 23 18"><defs><path id="3qu3a" d="M1289.383 2052.13a9.076 9.076 0 0 1-2.61.715 4.564 4.564 0 0 0 1.998-2.513c-.88.52-1.853.899-2.888 1.104a4.545 4.545 0 0 0-7.744 4.144c-3.777-.19-7.126-2-9.367-4.75a4.51 4.51 0 0 0-.615 2.285c0 1.577.803 2.968 2.021 3.782a4.545 4.545 0 0 1-2.059-.57v.057a4.55 4.55 0 0 0 3.646 4.456c-.381.102-.783.16-1.198.16-.293 0-.577-.03-.855-.085a4.547 4.547 0 0 0 4.244 3.156 9.119 9.119 0 0 1-5.644 1.943 9.66 9.66 0 0 1-1.084-.063 12.847 12.847 0 0 0 6.966 2.045c8.36 0 12.93-6.925 12.93-12.93l-.014-.589a9.076 9.076 0 0 0 2.273-2.348z"/></defs><g><g transform="translate(-1267 -2050)"><use fill="#474747" xlink:href="#3qu3a"/></g></g></svg>